<?xml version="1.0" encoding="utf-8" standalone="no"?>
<!DOCTYPE svg PUBLIC "-//W3C//DTD SVG 1.1//EN"
  "http://www.w3.org/Graphics/SVG/1.1/DTD/svg11.dtd">
<svg xmlns:xlink="http://www.w3.org/1999/xlink" width="720pt" height="432pt" viewBox="0 0 720 432" xmlns="http://www.w3.org/2000/svg" version="1.1">
 <metadata>
  <rdf:RDF xmlns:dc="http://purl.org/dc/elements/1.1/" xmlns:cc="http://creativecommons.org/ns#" xmlns:rdf="http://www.w3.org/1999/02/22-rdf-syntax-ns#">
   <cc:Work>
    <dc:type rdf:resource="http://purl.org/dc/dcmitype/StillImage"/>
    <dc:date>2023-08-20T20:27:01.663647</dc:date>
    <dc:format>image/svg+xml</dc:format>
    <dc:creator>
     <cc:Agent>
      <dc:title>Matplotlib v3.7.1, https://matplotlib.org/</dc:title>
     </cc:Agent>
    </dc:creator>
   </cc:Work>
  </rdf:RDF>
 </metadata>
 <defs>
  <style type="text/css">*{stroke-linejoin: round; stroke-linecap: butt}</style>
 </defs>
 <g id="figure_1">
  <g id="patch_1">
   <path d="M 0 432 
L 720 432 
L 720 0 
L 0 0 
L 0 432 
z
" style="fill: none"/>
  </g>
  <g id="axes_1">
   <g id="patch_2">
    <path d="M 90 384.48 
L 648 384.48 
L 648 51.84 
L 90 51.84 
L 90 384.48 
z
" style="fill: none"/>
   </g>
   <g id="matplotlib.axis_1">
    <g id="xtick_1">
     <g id="line2d_1">
      <path d="M 115.363636 384.48 
L 115.363636 51.84 
" clip-path="url(#p031451f5dd)" style="fill: none; stroke: #cccccc; stroke-linecap: round"/>
     </g>
     <g id="text_1">
      <!-- 200 -->
      <g style="fill: #262626" transform="translate(104.865511 402.338281) scale(0.11 -0.11)">
       <defs>
        <path id="DejaVuSans-32" d="M 1228 531 
L 3431 531 
L 3431 0 
L 469 0 
L 469 531 
Q 828 903 1448 1529 
Q 2069 2156 2228 2338 
Q 2531 2678 2651 2914 
Q 2772 3150 2772 3378 
Q 2772 3750 2511 3984 
Q 2250 4219 1831 4219 
Q 1534 4219 1204 4116 
Q 875 4013 500 3803 
L 500 4441 
Q 881 4594 1212 4672 
Q 1544 4750 1819 4750 
Q 2544 4750 2975 4387 
Q 3406 4025 3406 3419 
Q 3406 3131 3298 2873 
Q 3191 2616 2906 2266 
Q 2828 2175 2409 1742 
Q 1991 1309 1228 531 
z
" transform="scale(0.015625)"/>
        <path id="DejaVuSans-30" d="M 2034 4250 
Q 1547 4250 1301 3770 
Q 1056 3291 1056 2328 
Q 1056 1369 1301 889 
Q 1547 409 2034 409 
Q 2525 409 2770 889 
Q 3016 1369 3016 2328 
Q 3016 3291 2770 3770 
Q 2525 4250 2034 4250 
z
M 2034 4750 
Q 2819 4750 3233 4129 
Q 3647 3509 3647 2328 
Q 3647 1150 3233 529 
Q 2819 -91 2034 -91 
Q 1250 -91 836 529 
Q 422 1150 422 2328 
Q 422 3509 836 4129 
Q 1250 4750 2034 4750 
z
" transform="scale(0.015625)"/>
       </defs>
       <use xlink:href="#DejaVuSans-32"/>
       <use xlink:href="#DejaVuSans-30" x="63.623047"/>
       <use xlink:href="#DejaVuSans-30" x="127.246094"/>
      </g>
     </g>
    </g>
    <g id="xtick_2">
     <g id="line2d_2">
      <path d="M 216.818182 384.48 
L 216.818182 51.84 
" clip-path="url(#p031451f5dd)" style="fill: none; stroke: #cccccc; stroke-linecap: round"/>
     </g>
     <g id="text_2">
      <!-- 220 -->
      <g style="fill: #262626" transform="translate(206.320057 402.338281) scale(0.11 -0.11)">
       <use xlink:href="#DejaVuSans-32"/>
       <use xlink:href="#DejaVuSans-32" x="63.623047"/>
       <use xlink:href="#DejaVuSans-30" x="127.246094"/>
      </g>
     </g>
    </g>
    <g id="xtick_3">
     <g id="line2d_3">
      <path d="M 318.272727 384.48 
L 318.272727 51.84 
" clip-path="url(#p031451f5dd)" style="fill: none; stroke: #cccccc; stroke-linecap: round"/>
     </g>
     <g id="text_3">
      <!-- 240 -->
      <g style="fill: #262626" transform="translate(307.774602 402.338281) scale(0.11 -0.11)">
       <defs>
        <path id="DejaVuSans-34" d="M 2419 4116 
L 825 1625 
L 2419 1625 
L 2419 4116 
z
M 2253 4666 
L 3047 4666 
L 3047 1625 
L 3713 1625 
L 3713 1100 
L 3047 1100 
L 3047 0 
L 2419 0 
L 2419 1100 
L 313 1100 
L 313 1709 
L 2253 4666 
z
" transform="scale(0.015625)"/>
       </defs>
       <use xlink:href="#DejaVuSans-32"/>
       <use xlink:href="#DejaVuSans-34" x="63.623047"/>
       <use xlink:href="#DejaVuSans-30" x="127.246094"/>
      </g>
     </g>
    </g>
    <g id="xtick_4">
     <g id="line2d_4">
      <path d="M 419.727273 384.48 
L 419.727273 51.84 
" clip-path="url(#p031451f5dd)" style="fill: none; stroke: #cccccc; stroke-linecap: round"/>
     </g>
     <g id="text_4">
      <!-- 260 -->
      <g style="fill: #262626" transform="translate(409.229148 402.338281) scale(0.11 -0.11)">
       <defs>
        <path id="DejaVuSans-36" d="M 2113 2584 
Q 1688 2584 1439 2293 
Q 1191 2003 1191 1497 
Q 1191 994 1439 701 
Q 1688 409 2113 409 
Q 2538 409 2786 701 
Q 3034 994 3034 1497 
Q 3034 2003 2786 2293 
Q 2538 2584 2113 2584 
z
M 3366 4563 
L 3366 3988 
Q 3128 4100 2886 4159 
Q 2644 4219 2406 4219 
Q 1781 4219 1451 3797 
Q 1122 3375 1075 2522 
Q 1259 2794 1537 2939 
Q 1816 3084 2150 3084 
Q 2853 3084 3261 2657 
Q 3669 2231 3669 1497 
Q 3669 778 3244 343 
Q 2819 -91 2113 -91 
Q 1303 -91 875 529 
Q 447 1150 447 2328 
Q 447 3434 972 4092 
Q 1497 4750 2381 4750 
Q 2619 4750 2861 4703 
Q 3103 4656 3366 4563 
z
" transform="scale(0.015625)"/>
       </defs>
       <use xlink:href="#DejaVuSans-32"/>
       <use xlink:href="#DejaVuSans-36" x="63.623047"/>
       <use xlink:href="#DejaVuSans-30" x="127.246094"/>
      </g>
     </g>
    </g>
    <g id="xtick_5">
     <g id="line2d_5">
      <path d="M 521.181818 384.48 
L 521.181818 51.84 
" clip-path="url(#p031451f5dd)" style="fill: none; stroke: #cccccc; stroke-linecap: round"/>
     </g>
     <g id="text_5">
      <!-- 280 -->
      <g style="fill: #262626" transform="translate(510.683693 402.338281) scale(0.11 -0.11)">
       <defs>
        <path id="DejaVuSans-38" d="M 2034 2216 
Q 1584 2216 1326 1975 
Q 1069 1734 1069 1313 
Q 1069 891 1326 650 
Q 1584 409 2034 409 
Q 2484 409 2743 651 
Q 3003 894 3003 1313 
Q 3003 1734 2745 1975 
Q 2488 2216 2034 2216 
z
M 1403 2484 
Q 997 2584 770 2862 
Q 544 3141 544 3541 
Q 544 4100 942 4425 
Q 1341 4750 2034 4750 
Q 2731 4750 3128 4425 
Q 3525 4100 3525 3541 
Q 3525 3141 3298 2862 
Q 3072 2584 2669 2484 
Q 3125 2378 3379 2068 
Q 3634 1759 3634 1313 
Q 3634 634 3220 271 
Q 2806 -91 2034 -91 
Q 1263 -91 848 271 
Q 434 634 434 1313 
Q 434 1759 690 2068 
Q 947 2378 1403 2484 
z
M 1172 3481 
Q 1172 3119 1398 2916 
Q 1625 2713 2034 2713 
Q 2441 2713 2670 2916 
Q 2900 3119 2900 3481 
Q 2900 3844 2670 4047 
Q 2441 4250 2034 4250 
Q 1625 4250 1398 4047 
Q 1172 3844 1172 3481 
z
" transform="scale(0.015625)"/>
       </defs>
       <use xlink:href="#DejaVuSans-32"/>
       <use xlink:href="#DejaVuSans-38" x="63.623047"/>
       <use xlink:href="#DejaVuSans-30" x="127.246094"/>
      </g>
     </g>
    </g>
    <g id="xtick_6">
     <g id="line2d_6">
      <path d="M 622.636364 384.48 
L 622.636364 51.84 
" clip-path="url(#p031451f5dd)" style="fill: none; stroke: #cccccc; stroke-linecap: round"/>
     </g>
     <g id="text_6">
      <!-- 300 -->
      <g style="fill: #262626" transform="translate(612.138239 402.338281) scale(0.11 -0.11)">
       <defs>
        <path id="DejaVuSans-33" d="M 2597 2516 
Q 3050 2419 3304 2112 
Q 3559 1806 3559 1356 
Q 3559 666 3084 287 
Q 2609 -91 1734 -91 
Q 1441 -91 1130 -33 
Q 819 25 488 141 
L 488 750 
Q 750 597 1062 519 
Q 1375 441 1716 441 
Q 2309 441 2620 675 
Q 2931 909 2931 1356 
Q 2931 1769 2642 2001 
Q 2353 2234 1838 2234 
L 1294 2234 
L 1294 2753 
L 1863 2753 
Q 2328 2753 2575 2939 
Q 2822 3125 2822 3475 
Q 2822 3834 2567 4026 
Q 2313 4219 1838 4219 
Q 1578 4219 1281 4162 
Q 984 4106 628 3988 
L 628 4550 
Q 988 4650 1302 4700 
Q 1616 4750 1894 4750 
Q 2613 4750 3031 4423 
Q 3450 4097 3450 3541 
Q 3450 3153 3228 2886 
Q 3006 2619 2597 2516 
z
" transform="scale(0.015625)"/>
       </defs>
       <use xlink:href="#DejaVuSans-33"/>
       <use xlink:href="#DejaVuSans-30" x="63.623047"/>
       <use xlink:href="#DejaVuSans-30" x="127.246094"/>
      </g>
     </g>
    </g>
    <g id="text_7">
     <!-- k -->
     <g style="fill: #262626" transform="translate(365.525625 417.744062) scale(0.12 -0.12)">
      <defs>
       <path id="DejaVuSans-6b" d="M 581 4863 
L 1159 4863 
L 1159 1991 
L 2875 3500 
L 3609 3500 
L 1753 1863 
L 3688 0 
L 2938 0 
L 1159 1709 
L 1159 0 
L 581 0 
L 581 4863 
z
" transform="scale(0.015625)"/>
      </defs>
      <use xlink:href="#DejaVuSans-6b"/>
     </g>
    </g>
   </g>
   <g id="matplotlib.axis_2">
    <g id="ytick_1">
     <g id="line2d_7">
      <path d="M 90 382.413237 
L 648 382.413237 
" clip-path="url(#p031451f5dd)" style="fill: none; stroke: #cccccc; stroke-linecap: round"/>
     </g>
     <g id="text_8">
      <!-- 4.5 -->
      <g style="fill: #262626" transform="translate(63.006563 386.592378) scale(0.11 -0.11)">
       <defs>
        <path id="DejaVuSans-2e" d="M 684 794 
L 1344 794 
L 1344 0 
L 684 0 
L 684 794 
z
" transform="scale(0.015625)"/>
        <path id="DejaVuSans-35" d="M 691 4666 
L 3169 4666 
L 3169 4134 
L 1269 4134 
L 1269 2991 
Q 1406 3038 1543 3061 
Q 1681 3084 1819 3084 
Q 2600 3084 3056 2656 
Q 3513 2228 3513 1497 
Q 3513 744 3044 326 
Q 2575 -91 1722 -91 
Q 1428 -91 1123 -41 
Q 819 9 494 109 
L 494 744 
Q 775 591 1075 516 
Q 1375 441 1709 441 
Q 2250 441 2565 725 
Q 2881 1009 2881 1497 
Q 2881 1984 2565 2268 
Q 2250 2553 1709 2553 
Q 1456 2553 1204 2497 
Q 953 2441 691 2322 
L 691 4666 
z
" transform="scale(0.015625)"/>
       </defs>
       <use xlink:href="#DejaVuSans-34"/>
       <use xlink:href="#DejaVuSans-2e" x="63.623047"/>
       <use xlink:href="#DejaVuSans-35" x="95.410156"/>
      </g>
     </g>
    </g>
    <g id="ytick_2">
     <g id="line2d_8">
      <path d="M 90 338.902446 
L 648 338.902446 
" clip-path="url(#p031451f5dd)" style="fill: none; stroke: #cccccc; stroke-linecap: round"/>
     </g>
     <g id="text_9">
      <!-- 5.0 -->
      <g style="fill: #262626" transform="translate(63.006563 343.081587) scale(0.11 -0.11)">
       <use xlink:href="#DejaVuSans-35"/>
       <use xlink:href="#DejaVuSans-2e" x="63.623047"/>
       <use xlink:href="#DejaVuSans-30" x="95.410156"/>
      </g>
     </g>
    </g>
    <g id="ytick_3">
     <g id="line2d_9">
      <path d="M 90 295.391655 
L 648 295.391655 
" clip-path="url(#p031451f5dd)" style="fill: none; stroke: #cccccc; stroke-linecap: round"/>
     </g>
     <g id="text_10">
      <!-- 5.5 -->
      <g style="fill: #262626" transform="translate(63.006563 299.570795) scale(0.11 -0.11)">
       <use xlink:href="#DejaVuSans-35"/>
       <use xlink:href="#DejaVuSans-2e" x="63.623047"/>
       <use xlink:href="#DejaVuSans-35" x="95.410156"/>
      </g>
     </g>
    </g>
    <g id="ytick_4">
     <g id="line2d_10">
      <path d="M 90 251.880863 
L 648 251.880863 
" clip-path="url(#p031451f5dd)" style="fill: none; stroke: #cccccc; stroke-linecap: round"/>
     </g>
     <g id="text_11">
      <!-- 6.0 -->
      <g style="fill: #262626" transform="translate(63.006563 256.060004) scale(0.11 -0.11)">
       <use xlink:href="#DejaVuSans-36"/>
       <use xlink:href="#DejaVuSans-2e" x="63.623047"/>
       <use xlink:href="#DejaVuSans-30" x="95.410156"/>
      </g>
     </g>
    </g>
    <g id="ytick_5">
     <g id="line2d_11">
      <path d="M 90 208.370072 
L 648 208.370072 
" clip-path="url(#p031451f5dd)" style="fill: none; stroke: #cccccc; stroke-linecap: round"/>
     </g>
     <g id="text_12">
      <!-- 6.5 -->
      <g style="fill: #262626" transform="translate(63.006563 212.549213) scale(0.11 -0.11)">
       <use xlink:href="#DejaVuSans-36"/>
       <use xlink:href="#DejaVuSans-2e" x="63.623047"/>
       <use xlink:href="#DejaVuSans-35" x="95.410156"/>
      </g>
     </g>
    </g>
    <g id="ytick_6">
     <g id="line2d_12">
      <path d="M 90 164.859281 
L 648 164.859281 
" clip-path="url(#p031451f5dd)" style="fill: none; stroke: #cccccc; stroke-linecap: round"/>
     </g>
     <g id="text_13">
      <!-- 7.0 -->
      <g style="fill: #262626" transform="translate(63.006563 169.038421) scale(0.11 -0.11)">
       <defs>
        <path id="DejaVuSans-37" d="M 525 4666 
L 3525 4666 
L 3525 4397 
L 1831 0 
L 1172 0 
L 2766 4134 
L 525 4134 
L 525 4666 
z
" transform="scale(0.015625)"/>
       </defs>
       <use xlink:href="#DejaVuSans-37"/>
       <use xlink:href="#DejaVuSans-2e" x="63.623047"/>
       <use xlink:href="#DejaVuSans-30" x="95.410156"/>
      </g>
     </g>
    </g>
    <g id="ytick_7">
     <g id="line2d_13">
      <path d="M 90 121.348489 
L 648 121.348489 
" clip-path="url(#p031451f5dd)" style="fill: none; stroke: #cccccc; stroke-linecap: round"/>
     </g>
     <g id="text_14">
      <!-- 7.5 -->
      <g style="fill: #262626" transform="translate(63.006563 125.52763) scale(0.11 -0.11)">
       <use xlink:href="#DejaVuSans-37"/>
       <use xlink:href="#DejaVuSans-2e" x="63.623047"/>
       <use xlink:href="#DejaVuSans-35" x="95.410156"/>
      </g>
     </g>
    </g>
    <g id="ytick_8">
     <g id="line2d_14">
      <path d="M 90 77.837698 
L 648 77.837698 
" clip-path="url(#p031451f5dd)" style="fill: none; stroke: #cccccc; stroke-linecap: round"/>
     </g>
     <g id="text_15">
      <!-- 8.0 -->
      <g style="fill: #262626" transform="translate(63.006563 82.016838) scale(0.11 -0.11)">
       <use xlink:href="#DejaVuSans-38"/>
       <use xlink:href="#DejaVuSans-2e" x="63.623047"/>
       <use xlink:href="#DejaVuSans-30" x="95.410156"/>
      </g>
     </g>
    </g>
    <g id="text_16">
     <!-- Average MAE -->
     <g style="fill: #262626" transform="translate(56.510937 257.77875) rotate(-90) scale(0.12 -0.12)">
      <defs>
       <path id="DejaVuSans-41" d="M 2188 4044 
L 1331 1722 
L 3047 1722 
L 2188 4044 
z
M 1831 4666 
L 2547 4666 
L 4325 0 
L 3669 0 
L 3244 1197 
L 1141 1197 
L 716 0 
L 50 0 
L 1831 4666 
z
" transform="scale(0.015625)"/>
       <path id="DejaVuSans-76" d="M 191 3500 
L 800 3500 
L 1894 563 
L 2988 3500 
L 3597 3500 
L 2284 0 
L 1503 0 
L 191 3500 
z
" transform="scale(0.015625)"/>
       <path id="DejaVuSans-65" d="M 3597 1894 
L 3597 1613 
L 953 1613 
Q 991 1019 1311 708 
Q 1631 397 2203 397 
Q 2534 397 2845 478 
Q 3156 559 3463 722 
L 3463 178 
Q 3153 47 2828 -22 
Q 2503 -91 2169 -91 
Q 1331 -91 842 396 
Q 353 884 353 1716 
Q 353 2575 817 3079 
Q 1281 3584 2069 3584 
Q 2775 3584 3186 3129 
Q 3597 2675 3597 1894 
z
M 3022 2063 
Q 3016 2534 2758 2815 
Q 2500 3097 2075 3097 
Q 1594 3097 1305 2825 
Q 1016 2553 972 2059 
L 3022 2063 
z
" transform="scale(0.015625)"/>
       <path id="DejaVuSans-72" d="M 2631 2963 
Q 2534 3019 2420 3045 
Q 2306 3072 2169 3072 
Q 1681 3072 1420 2755 
Q 1159 2438 1159 1844 
L 1159 0 
L 581 0 
L 581 3500 
L 1159 3500 
L 1159 2956 
Q 1341 3275 1631 3429 
Q 1922 3584 2338 3584 
Q 2397 3584 2469 3576 
Q 2541 3569 2628 3553 
L 2631 2963 
z
" transform="scale(0.015625)"/>
       <path id="DejaVuSans-61" d="M 2194 1759 
Q 1497 1759 1228 1600 
Q 959 1441 959 1056 
Q 959 750 1161 570 
Q 1363 391 1709 391 
Q 2188 391 2477 730 
Q 2766 1069 2766 1631 
L 2766 1759 
L 2194 1759 
z
M 3341 1997 
L 3341 0 
L 2766 0 
L 2766 531 
Q 2569 213 2275 61 
Q 1981 -91 1556 -91 
Q 1019 -91 701 211 
Q 384 513 384 1019 
Q 384 1609 779 1909 
Q 1175 2209 1959 2209 
L 2766 2209 
L 2766 2266 
Q 2766 2663 2505 2880 
Q 2244 3097 1772 3097 
Q 1472 3097 1187 3025 
Q 903 2953 641 2809 
L 641 3341 
Q 956 3463 1253 3523 
Q 1550 3584 1831 3584 
Q 2591 3584 2966 3190 
Q 3341 2797 3341 1997 
z
" transform="scale(0.015625)"/>
       <path id="DejaVuSans-67" d="M 2906 1791 
Q 2906 2416 2648 2759 
Q 2391 3103 1925 3103 
Q 1463 3103 1205 2759 
Q 947 2416 947 1791 
Q 947 1169 1205 825 
Q 1463 481 1925 481 
Q 2391 481 2648 825 
Q 2906 1169 2906 1791 
z
M 3481 434 
Q 3481 -459 3084 -895 
Q 2688 -1331 1869 -1331 
Q 1566 -1331 1297 -1286 
Q 1028 -1241 775 -1147 
L 775 -588 
Q 1028 -725 1275 -790 
Q 1522 -856 1778 -856 
Q 2344 -856 2625 -561 
Q 2906 -266 2906 331 
L 2906 616 
Q 2728 306 2450 153 
Q 2172 0 1784 0 
Q 1141 0 747 490 
Q 353 981 353 1791 
Q 353 2603 747 3093 
Q 1141 3584 1784 3584 
Q 2172 3584 2450 3431 
Q 2728 3278 2906 2969 
L 2906 3500 
L 3481 3500 
L 3481 434 
z
" transform="scale(0.015625)"/>
       <path id="DejaVuSans-20" transform="scale(0.015625)"/>
       <path id="DejaVuSans-4d" d="M 628 4666 
L 1569 4666 
L 2759 1491 
L 3956 4666 
L 4897 4666 
L 4897 0 
L 4281 0 
L 4281 4097 
L 3078 897 
L 2444 897 
L 1241 4097 
L 1241 0 
L 628 0 
L 628 4666 
z
" transform="scale(0.015625)"/>
       <path id="DejaVuSans-45" d="M 628 4666 
L 3578 4666 
L 3578 4134 
L 1259 4134 
L 1259 2753 
L 3481 2753 
L 3481 2222 
L 1259 2222 
L 1259 531 
L 3634 531 
L 3634 0 
L 628 0 
L 628 4666 
z
" transform="scale(0.015625)"/>
      </defs>
      <use xlink:href="#DejaVuSans-41"/>
      <use xlink:href="#DejaVuSans-76" x="62.533203"/>
      <use xlink:href="#DejaVuSans-65" x="121.712891"/>
      <use xlink:href="#DejaVuSans-72" x="183.236328"/>
      <use xlink:href="#DejaVuSans-61" x="224.349609"/>
      <use xlink:href="#DejaVuSans-67" x="285.628906"/>
      <use xlink:href="#DejaVuSans-65" x="349.105469"/>
      <use xlink:href="#DejaVuSans-20" x="410.628906"/>
      <use xlink:href="#DejaVuSans-4d" x="442.416016"/>
      <use xlink:href="#DejaVuSans-41" x="528.695312"/>
      <use xlink:href="#DejaVuSans-45" x="597.103516"/>
     </g>
    </g>
   </g>
   <g id="PathCollection_1">
    <defs>
     <path id="m7002875f82" d="M 0 3 
C 0.795609 3 1.55874 2.683901 2.12132 2.12132 
C 2.683901 1.55874 3 0.795609 3 0 
C 3 -0.795609 2.683901 -1.55874 2.12132 -2.12132 
C 1.55874 -2.683901 0.795609 -3 0 -3 
C -0.795609 -3 -1.55874 -2.683901 -2.12132 -2.12132 
C -2.683901 -1.55874 -3 -0.795609 -3 0 
C -3 0.795609 -2.683901 1.55874 -2.12132 2.12132 
C -1.55874 2.683901 -0.795609 3 0 3 
z
" style="stroke: #ffffff; stroke-width: 0.48"/>
    </defs>
    <g clip-path="url(#p031451f5dd)">
     <use xlink:href="#m7002875f82" x="115.363636" y="180.088058" style="fill: #a1c9f4; stroke: #ffffff; stroke-width: 0.48"/>
     <use xlink:href="#m7002875f82" x="120.436364" y="258.407482" style="fill: #a1c9f4; stroke: #ffffff; stroke-width: 0.48"/>
     <use xlink:href="#m7002875f82" x="125.509091" y="291.040576" style="fill: #a1c9f4; stroke: #ffffff; stroke-width: 0.48"/>
     <use xlink:href="#m7002875f82" x="130.581818" y="284.513957" style="fill: #a1c9f4; stroke: #ffffff; stroke-width: 0.48"/>
     <use xlink:href="#m7002875f82" x="135.654545" y="186.614676" style="fill: #a1c9f4; stroke: #ffffff; stroke-width: 0.48"/>
     <use xlink:href="#m7002875f82" x="140.727273" y="254.056403" style="fill: #a1c9f4; stroke: #ffffff; stroke-width: 0.48"/>
     <use xlink:href="#m7002875f82" x="145.8" y="247.529784" style="fill: #a1c9f4; stroke: #ffffff; stroke-width: 0.48"/>
     <use xlink:href="#m7002875f82" x="150.872727" y="169.21036" style="fill: #a1c9f4; stroke: #ffffff; stroke-width: 0.48"/>
     <use xlink:href="#m7002875f82" x="155.945455" y="258.407482" style="fill: #a1c9f4; stroke: #ffffff; stroke-width: 0.48"/>
     <use xlink:href="#m7002875f82" x="161.018182" y="204.018993" style="fill: #a1c9f4; stroke: #ffffff; stroke-width: 0.48"/>
     <use xlink:href="#m7002875f82" x="166.090909" y="156.157122" style="fill: #a1c9f4; stroke: #ffffff; stroke-width: 0.48"/>
     <use xlink:href="#m7002875f82" x="171.163636" y="297.567194" style="fill: #a1c9f4; stroke: #ffffff; stroke-width: 0.48"/>
     <use xlink:href="#m7002875f82" x="176.236364" y="245.354245" style="fill: #a1c9f4; stroke: #ffffff; stroke-width: 0.48"/>
     <use xlink:href="#m7002875f82" x="181.309091" y="230.125468" style="fill: #a1c9f4; stroke: #ffffff; stroke-width: 0.48"/>
     <use xlink:href="#m7002875f82" x="186.381818" y="143.103885" style="fill: #a1c9f4; stroke: #ffffff; stroke-width: 0.48"/>
     <use xlink:href="#m7002875f82" x="191.454545" y="190.965755" style="fill: #a1c9f4; stroke: #ffffff; stroke-width: 0.48"/>
     <use xlink:href="#m7002875f82" x="196.527273" y="116.99741" style="fill: #a1c9f4; stroke: #ffffff; stroke-width: 0.48"/>
     <use xlink:href="#m7002875f82" x="201.6" y="190.965755" style="fill: #a1c9f4; stroke: #ffffff; stroke-width: 0.48"/>
     <use xlink:href="#m7002875f82" x="206.672727" y="66.96" style="fill: #a1c9f4; stroke: #ffffff; stroke-width: 0.48"/>
     <use xlink:href="#m7002875f82" x="211.745455" y="254.056403" style="fill: #a1c9f4; stroke: #ffffff; stroke-width: 0.48"/>
     <use xlink:href="#m7002875f82" x="216.818182" y="277.987338" style="fill: #a1c9f4; stroke: #ffffff; stroke-width: 0.48"/>
     <use xlink:href="#m7002875f82" x="221.890909" y="354.131223" style="fill: #a1c9f4; stroke: #ffffff; stroke-width: 0.48"/>
     <use xlink:href="#m7002875f82" x="226.963636" y="267.10964" style="fill: #a1c9f4; stroke: #ffffff; stroke-width: 0.48"/>
     <use xlink:href="#m7002875f82" x="232.036364" y="284.513957" style="fill: #a1c9f4; stroke: #ffffff; stroke-width: 0.48"/>
     <use xlink:href="#m7002875f82" x="237.109091" y="301.918273" style="fill: #a1c9f4; stroke: #ffffff; stroke-width: 0.48"/>
     <use xlink:href="#m7002875f82" x="242.181818" y="241.003165" style="fill: #a1c9f4; stroke: #ffffff; stroke-width: 0.48"/>
     <use xlink:href="#m7002875f82" x="247.254545" y="230.125468" style="fill: #a1c9f4; stroke: #ffffff; stroke-width: 0.48"/>
     <use xlink:href="#m7002875f82" x="252.327273" y="354.131223" style="fill: #a1c9f4; stroke: #ffffff; stroke-width: 0.48"/>
     <use xlink:href="#m7002875f82" x="257.4" y="310.620432" style="fill: #a1c9f4; stroke: #ffffff; stroke-width: 0.48"/>
     <use xlink:href="#m7002875f82" x="262.472727" y="310.620432" style="fill: #a1c9f4; stroke: #ffffff; stroke-width: 0.48"/>
     <use xlink:href="#m7002875f82" x="267.545455" y="323.673669" style="fill: #a1c9f4; stroke: #ffffff; stroke-width: 0.48"/>
     <use xlink:href="#m7002875f82" x="272.618182" y="271.460719" style="fill: #a1c9f4; stroke: #ffffff; stroke-width: 0.48"/>
     <use xlink:href="#m7002875f82" x="277.690909" y="260.583022" style="fill: #a1c9f4; stroke: #ffffff; stroke-width: 0.48"/>
     <use xlink:href="#m7002875f82" x="282.763636" y="282.338417" style="fill: #a1c9f4; stroke: #ffffff; stroke-width: 0.48"/>
     <use xlink:href="#m7002875f82" x="287.836364" y="338.902446" style="fill: #a1c9f4; stroke: #ffffff; stroke-width: 0.48"/>
     <use xlink:href="#m7002875f82" x="292.909091" y="273.636259" style="fill: #a1c9f4; stroke: #ffffff; stroke-width: 0.48"/>
     <use xlink:href="#m7002875f82" x="297.981818" y="282.338417" style="fill: #a1c9f4; stroke: #ffffff; stroke-width: 0.48"/>
     <use xlink:href="#m7002875f82" x="303.054545" y="210.545612" style="fill: #a1c9f4; stroke: #ffffff; stroke-width: 0.48"/>
     <use xlink:href="#m7002875f82" x="308.127273" y="225.774388" style="fill: #a1c9f4; stroke: #ffffff; stroke-width: 0.48"/>
     <use xlink:href="#m7002875f82" x="313.2" y="297.567194" style="fill: #a1c9f4; stroke: #ffffff; stroke-width: 0.48"/>
     <use xlink:href="#m7002875f82" x="318.272727" y="306.269353" style="fill: #a1c9f4; stroke: #ffffff; stroke-width: 0.48"/>
     <use xlink:href="#m7002875f82" x="323.345455" y="288.865036" style="fill: #a1c9f4; stroke: #ffffff; stroke-width: 0.48"/>
     <use xlink:href="#m7002875f82" x="328.418182" y="225.774388" style="fill: #a1c9f4; stroke: #ffffff; stroke-width: 0.48"/>
     <use xlink:href="#m7002875f82" x="333.490909" y="217.07223" style="fill: #a1c9f4; stroke: #ffffff; stroke-width: 0.48"/>
     <use xlink:href="#m7002875f82" x="338.563636" y="217.07223" style="fill: #a1c9f4; stroke: #ffffff; stroke-width: 0.48"/>
     <use xlink:href="#m7002875f82" x="343.636364" y="219.24777" style="fill: #a1c9f4; stroke: #ffffff; stroke-width: 0.48"/>
     <use xlink:href="#m7002875f82" x="348.709091" y="317.14705" style="fill: #a1c9f4; stroke: #ffffff; stroke-width: 0.48"/>
     <use xlink:href="#m7002875f82" x="353.781818" y="301.918273" style="fill: #a1c9f4; stroke: #ffffff; stroke-width: 0.48"/>
     <use xlink:href="#m7002875f82" x="358.854545" y="234.476547" style="fill: #a1c9f4; stroke: #ffffff; stroke-width: 0.48"/>
     <use xlink:href="#m7002875f82" x="363.927273" y="291.040576" style="fill: #a1c9f4; stroke: #ffffff; stroke-width: 0.48"/>
     <use xlink:href="#m7002875f82" x="369" y="162.683741" style="fill: #a1c9f4; stroke: #ffffff; stroke-width: 0.48"/>
     <use xlink:href="#m7002875f82" x="374.072727" y="219.24777" style="fill: #a1c9f4; stroke: #ffffff; stroke-width: 0.48"/>
     <use xlink:href="#m7002875f82" x="379.145455" y="310.620432" style="fill: #a1c9f4; stroke: #ffffff; stroke-width: 0.48"/>
     <use xlink:href="#m7002875f82" x="384.218182" y="238.827626" style="fill: #a1c9f4; stroke: #ffffff; stroke-width: 0.48"/>
     <use xlink:href="#m7002875f82" x="389.290909" y="206.194532" style="fill: #a1c9f4; stroke: #ffffff; stroke-width: 0.48"/>
     <use xlink:href="#m7002875f82" x="394.363636" y="277.987338" style="fill: #a1c9f4; stroke: #ffffff; stroke-width: 0.48"/>
     <use xlink:href="#m7002875f82" x="399.436364" y="275.811799" style="fill: #a1c9f4; stroke: #ffffff; stroke-width: 0.48"/>
     <use xlink:href="#m7002875f82" x="404.509091" y="227.949928" style="fill: #a1c9f4; stroke: #ffffff; stroke-width: 0.48"/>
     <use xlink:href="#m7002875f82" x="409.581818" y="245.354245" style="fill: #a1c9f4; stroke: #ffffff; stroke-width: 0.48"/>
     <use xlink:href="#m7002875f82" x="414.654545" y="273.636259" style="fill: #a1c9f4; stroke: #ffffff; stroke-width: 0.48"/>
     <use xlink:href="#m7002875f82" x="419.727273" y="317.14705" style="fill: #a1c9f4; stroke: #ffffff; stroke-width: 0.48"/>
     <use xlink:href="#m7002875f82" x="424.8" y="295.391655" style="fill: #a1c9f4; stroke: #ffffff; stroke-width: 0.48"/>
     <use xlink:href="#m7002875f82" x="429.872727" y="273.636259" style="fill: #a1c9f4; stroke: #ffffff; stroke-width: 0.48"/>
     <use xlink:href="#m7002875f82" x="434.945455" y="251.880863" style="fill: #a1c9f4; stroke: #ffffff; stroke-width: 0.48"/>
     <use xlink:href="#m7002875f82" x="440.018182" y="288.865036" style="fill: #a1c9f4; stroke: #ffffff; stroke-width: 0.48"/>
     <use xlink:href="#m7002875f82" x="445.090909" y="356.306763" style="fill: #a1c9f4; stroke: #ffffff; stroke-width: 0.48"/>
     <use xlink:href="#m7002875f82" x="450.163636" y="238.827626" style="fill: #a1c9f4; stroke: #ffffff; stroke-width: 0.48"/>
     <use xlink:href="#m7002875f82" x="455.236364" y="230.125468" style="fill: #a1c9f4; stroke: #ffffff; stroke-width: 0.48"/>
     <use xlink:href="#m7002875f82" x="460.309091" y="245.354245" style="fill: #a1c9f4; stroke: #ffffff; stroke-width: 0.48"/>
     <use xlink:href="#m7002875f82" x="465.381818" y="254.056403" style="fill: #a1c9f4; stroke: #ffffff; stroke-width: 0.48"/>
     <use xlink:href="#m7002875f82" x="470.454545" y="221.423309" style="fill: #a1c9f4; stroke: #ffffff; stroke-width: 0.48"/>
     <use xlink:href="#m7002875f82" x="475.527273" y="221.423309" style="fill: #a1c9f4; stroke: #ffffff; stroke-width: 0.48"/>
     <use xlink:href="#m7002875f82" x="480.6" y="225.774388" style="fill: #a1c9f4; stroke: #ffffff; stroke-width: 0.48"/>
     <use xlink:href="#m7002875f82" x="485.672727" y="273.636259" style="fill: #a1c9f4; stroke: #ffffff; stroke-width: 0.48"/>
     <use xlink:href="#m7002875f82" x="490.745455" y="301.918273" style="fill: #a1c9f4; stroke: #ffffff; stroke-width: 0.48"/>
     <use xlink:href="#m7002875f82" x="495.818182" y="262.758561" style="fill: #a1c9f4; stroke: #ffffff; stroke-width: 0.48"/>
     <use xlink:href="#m7002875f82" x="500.890909" y="264.934101" style="fill: #a1c9f4; stroke: #ffffff; stroke-width: 0.48"/>
     <use xlink:href="#m7002875f82" x="505.963636" y="321.498129" style="fill: #a1c9f4; stroke: #ffffff; stroke-width: 0.48"/>
     <use xlink:href="#m7002875f82" x="511.036364" y="356.306763" style="fill: #a1c9f4; stroke: #ffffff; stroke-width: 0.48"/>
     <use xlink:href="#m7002875f82" x="516.109091" y="234.476547" style="fill: #a1c9f4; stroke: #ffffff; stroke-width: 0.48"/>
     <use xlink:href="#m7002875f82" x="521.181818" y="245.354245" style="fill: #a1c9f4; stroke: #ffffff; stroke-width: 0.48"/>
     <use xlink:href="#m7002875f82" x="526.254545" y="169.21036" style="fill: #a1c9f4; stroke: #ffffff; stroke-width: 0.48"/>
     <use xlink:href="#m7002875f82" x="531.327273" y="277.987338" style="fill: #a1c9f4; stroke: #ffffff; stroke-width: 0.48"/>
     <use xlink:href="#m7002875f82" x="536.4" y="280.162878" style="fill: #a1c9f4; stroke: #ffffff; stroke-width: 0.48"/>
     <use xlink:href="#m7002875f82" x="541.472727" y="264.934101" style="fill: #a1c9f4; stroke: #ffffff; stroke-width: 0.48"/>
     <use xlink:href="#m7002875f82" x="546.545455" y="351.955683" style="fill: #a1c9f4; stroke: #ffffff; stroke-width: 0.48"/>
     <use xlink:href="#m7002875f82" x="551.618182" y="238.827626" style="fill: #a1c9f4; stroke: #ffffff; stroke-width: 0.48"/>
     <use xlink:href="#m7002875f82" x="556.690909" y="299.742734" style="fill: #a1c9f4; stroke: #ffffff; stroke-width: 0.48"/>
     <use xlink:href="#m7002875f82" x="561.763636" y="317.14705" style="fill: #a1c9f4; stroke: #ffffff; stroke-width: 0.48"/>
     <use xlink:href="#m7002875f82" x="566.836364" y="243.178705" style="fill: #a1c9f4; stroke: #ffffff; stroke-width: 0.48"/>
     <use xlink:href="#m7002875f82" x="571.909091" y="249.705324" style="fill: #a1c9f4; stroke: #ffffff; stroke-width: 0.48"/>
     <use xlink:href="#m7002875f82" x="576.981818" y="304.093813" style="fill: #a1c9f4; stroke: #ffffff; stroke-width: 0.48"/>
     <use xlink:href="#m7002875f82" x="582.054545" y="280.162878" style="fill: #a1c9f4; stroke: #ffffff; stroke-width: 0.48"/>
     <use xlink:href="#m7002875f82" x="587.127273" y="325.849209" style="fill: #a1c9f4; stroke: #ffffff; stroke-width: 0.48"/>
     <use xlink:href="#m7002875f82" x="592.2" y="367.18446" style="fill: #a1c9f4; stroke: #ffffff; stroke-width: 0.48"/>
     <use xlink:href="#m7002875f82" x="597.272727" y="351.955683" style="fill: #a1c9f4; stroke: #ffffff; stroke-width: 0.48"/>
     <use xlink:href="#m7002875f82" x="602.345455" y="301.918273" style="fill: #a1c9f4; stroke: #ffffff; stroke-width: 0.48"/>
     <use xlink:href="#m7002875f82" x="607.418182" y="369.36" style="fill: #a1c9f4; stroke: #ffffff; stroke-width: 0.48"/>
     <use xlink:href="#m7002875f82" x="612.490909" y="197.492374" style="fill: #a1c9f4; stroke: #ffffff; stroke-width: 0.48"/>
     <use xlink:href="#m7002875f82" x="617.563636" y="275.811799" style="fill: #a1c9f4; stroke: #ffffff; stroke-width: 0.48"/>
     <use xlink:href="#m7002875f82" x="622.636364" y="338.902446" style="fill: #a1c9f4; stroke: #ffffff; stroke-width: 0.48"/>
    </g>
   </g>
   <g id="patch_3">
    <path d="M 90 384.48 
L 90 51.84 
" style="fill: none; stroke: #cccccc; stroke-width: 1.25; stroke-linejoin: miter; stroke-linecap: square"/>
   </g>
   <g id="patch_4">
    <path d="M 648 384.48 
L 648 51.84 
" style="fill: none; stroke: #cccccc; stroke-width: 1.25; stroke-linejoin: miter; stroke-linecap: square"/>
   </g>
   <g id="patch_5">
    <path d="M 90 384.48 
L 648 384.48 
" style="fill: none; stroke: #cccccc; stroke-width: 1.25; stroke-linejoin: miter; stroke-linecap: square"/>
   </g>
   <g id="patch_6">
    <path d="M 90 51.84 
L 648 51.84 
" style="fill: none; stroke: #cccccc; stroke-width: 1.25; stroke-linejoin: miter; stroke-linecap: square"/>
   </g>
   <g id="text_17">
    <!-- Average MAE vs. k -->
    <g style="fill: #262626" transform="translate(313.509375 45.84) scale(0.12 -0.12)">
     <defs>
      <path id="DejaVuSans-73" d="M 2834 3397 
L 2834 2853 
Q 2591 2978 2328 3040 
Q 2066 3103 1784 3103 
Q 1356 3103 1142 2972 
Q 928 2841 928 2578 
Q 928 2378 1081 2264 
Q 1234 2150 1697 2047 
L 1894 2003 
Q 2506 1872 2764 1633 
Q 3022 1394 3022 966 
Q 3022 478 2636 193 
Q 2250 -91 1575 -91 
Q 1294 -91 989 -36 
Q 684 19 347 128 
L 347 722 
Q 666 556 975 473 
Q 1284 391 1588 391 
Q 1994 391 2212 530 
Q 2431 669 2431 922 
Q 2431 1156 2273 1281 
Q 2116 1406 1581 1522 
L 1381 1569 
Q 847 1681 609 1914 
Q 372 2147 372 2553 
Q 372 3047 722 3315 
Q 1072 3584 1716 3584 
Q 2034 3584 2315 3537 
Q 2597 3491 2834 3397 
z
" transform="scale(0.015625)"/>
     </defs>
     <use xlink:href="#DejaVuSans-41"/>
     <use xlink:href="#DejaVuSans-76" x="62.533203"/>
     <use xlink:href="#DejaVuSans-65" x="121.712891"/>
     <use xlink:href="#DejaVuSans-72" x="183.236328"/>
     <use xlink:href="#DejaVuSans-61" x="224.349609"/>
     <use xlink:href="#DejaVuSans-67" x="285.628906"/>
     <use xlink:href="#DejaVuSans-65" x="349.105469"/>
     <use xlink:href="#DejaVuSans-20" x="410.628906"/>
     <use xlink:href="#DejaVuSans-4d" x="442.416016"/>
     <use xlink:href="#DejaVuSans-41" x="528.695312"/>
     <use xlink:href="#DejaVuSans-45" x="597.103516"/>
     <use xlink:href="#DejaVuSans-20" x="660.287109"/>
     <use xlink:href="#DejaVuSans-76" x="692.074219"/>
     <use xlink:href="#DejaVuSans-73" x="751.253906"/>
     <use xlink:href="#DejaVuSans-2e" x="803.353516"/>
     <use xlink:href="#DejaVuSans-20" x="835.140625"/>
     <use xlink:href="#DejaVuSans-6b" x="866.927734"/>
    </g>
   </g>
  </g>
 </g>
 <defs>
  <clipPath id="p031451f5dd">
   <rect x="90" y="51.84" width="558" height="332.64"/>
  </clipPath>
 </defs>
</svg>
