<?xml version="1.0" encoding="utf-8" standalone="no"?>
<!DOCTYPE svg PUBLIC "-//W3C//DTD SVG 1.1//EN"
  "http://www.w3.org/Graphics/SVG/1.1/DTD/svg11.dtd">
<svg xmlns:xlink="http://www.w3.org/1999/xlink" width="720pt" height="432pt" viewBox="0 0 720 432" xmlns="http://www.w3.org/2000/svg" version="1.1">
 <metadata>
  <rdf:RDF xmlns:dc="http://purl.org/dc/elements/1.1/" xmlns:cc="http://creativecommons.org/ns#" xmlns:rdf="http://www.w3.org/1999/02/22-rdf-syntax-ns#">
   <cc:Work>
    <dc:type rdf:resource="http://purl.org/dc/dcmitype/StillImage"/>
    <dc:date>2023-08-15T02:14:57.885937</dc:date>
    <dc:format>image/svg+xml</dc:format>
    <dc:creator>
     <cc:Agent>
      <dc:title>Matplotlib v3.7.1, https://matplotlib.org/</dc:title>
     </cc:Agent>
    </dc:creator>
   </cc:Work>
  </rdf:RDF>
 </metadata>
 <defs>
  <style type="text/css">*{stroke-linejoin: round; stroke-linecap: butt}</style>
 </defs>
 <g id="figure_1">
  <g id="patch_1">
   <path d="M 0 432 
L 720 432 
L 720 0 
L 0 0 
L 0 432 
z
" style="fill: none"/>
  </g>
  <g id="axes_1">
   <g id="patch_2">
    <path d="M 74.16 381.78 
L 707.04 381.78 
L 707.04 29.04 
L 74.16 29.04 
L 74.16 381.78 
z
" style="fill: none"/>
   </g>
   <g id="matplotlib.axis_1">
    <g id="xtick_1">
     <g id="line2d_1">
      <path d="M 102.927273 381.78 
L 102.927273 29.04 
" clip-path="url(#pf1df403a69)" style="fill: none; stroke: #cccccc; stroke-linecap: round"/>
     </g>
     <g id="text_1">
      <!-- 100 -->
      <g style="fill: #262626" transform="translate(92.429148 399.638281) scale(0.11 -0.11)">
       <defs>
        <path id="DejaVuSans-31" d="M 794 531 
L 1825 531 
L 1825 4091 
L 703 3866 
L 703 4441 
L 1819 4666 
L 2450 4666 
L 2450 531 
L 3481 531 
L 3481 0 
L 794 0 
L 794 531 
z
" transform="scale(0.015625)"/>
        <path id="DejaVuSans-30" d="M 2034 4250 
Q 1547 4250 1301 3770 
Q 1056 3291 1056 2328 
Q 1056 1369 1301 889 
Q 1547 409 2034 409 
Q 2525 409 2770 889 
Q 3016 1369 3016 2328 
Q 3016 3291 2770 3770 
Q 2525 4250 2034 4250 
z
M 2034 4750 
Q 2819 4750 3233 4129 
Q 3647 3509 3647 2328 
Q 3647 1150 3233 529 
Q 2819 -91 2034 -91 
Q 1250 -91 836 529 
Q 422 1150 422 2328 
Q 422 3509 836 4129 
Q 1250 4750 2034 4750 
z
" transform="scale(0.015625)"/>
       </defs>
       <use xlink:href="#DejaVuSans-31"/>
       <use xlink:href="#DejaVuSans-30" x="63.623047"/>
       <use xlink:href="#DejaVuSans-30" x="127.246094"/>
      </g>
     </g>
    </g>
    <g id="xtick_2">
     <g id="line2d_2">
      <path d="M 217.996364 381.78 
L 217.996364 29.04 
" clip-path="url(#pf1df403a69)" style="fill: none; stroke: #cccccc; stroke-linecap: round"/>
     </g>
     <g id="text_2">
      <!-- 120 -->
      <g style="fill: #262626" transform="translate(207.498239 399.638281) scale(0.11 -0.11)">
       <defs>
        <path id="DejaVuSans-32" d="M 1228 531 
L 3431 531 
L 3431 0 
L 469 0 
L 469 531 
Q 828 903 1448 1529 
Q 2069 2156 2228 2338 
Q 2531 2678 2651 2914 
Q 2772 3150 2772 3378 
Q 2772 3750 2511 3984 
Q 2250 4219 1831 4219 
Q 1534 4219 1204 4116 
Q 875 4013 500 3803 
L 500 4441 
Q 881 4594 1212 4672 
Q 1544 4750 1819 4750 
Q 2544 4750 2975 4387 
Q 3406 4025 3406 3419 
Q 3406 3131 3298 2873 
Q 3191 2616 2906 2266 
Q 2828 2175 2409 1742 
Q 1991 1309 1228 531 
z
" transform="scale(0.015625)"/>
       </defs>
       <use xlink:href="#DejaVuSans-31"/>
       <use xlink:href="#DejaVuSans-32" x="63.623047"/>
       <use xlink:href="#DejaVuSans-30" x="127.246094"/>
      </g>
     </g>
    </g>
    <g id="xtick_3">
     <g id="line2d_3">
      <path d="M 333.065455 381.78 
L 333.065455 29.04 
" clip-path="url(#pf1df403a69)" style="fill: none; stroke: #cccccc; stroke-linecap: round"/>
     </g>
     <g id="text_3">
      <!-- 140 -->
      <g style="fill: #262626" transform="translate(322.56733 399.638281) scale(0.11 -0.11)">
       <defs>
        <path id="DejaVuSans-34" d="M 2419 4116 
L 825 1625 
L 2419 1625 
L 2419 4116 
z
M 2253 4666 
L 3047 4666 
L 3047 1625 
L 3713 1625 
L 3713 1100 
L 3047 1100 
L 3047 0 
L 2419 0 
L 2419 1100 
L 313 1100 
L 313 1709 
L 2253 4666 
z
" transform="scale(0.015625)"/>
       </defs>
       <use xlink:href="#DejaVuSans-31"/>
       <use xlink:href="#DejaVuSans-34" x="63.623047"/>
       <use xlink:href="#DejaVuSans-30" x="127.246094"/>
      </g>
     </g>
    </g>
    <g id="xtick_4">
     <g id="line2d_4">
      <path d="M 448.134545 381.78 
L 448.134545 29.04 
" clip-path="url(#pf1df403a69)" style="fill: none; stroke: #cccccc; stroke-linecap: round"/>
     </g>
     <g id="text_4">
      <!-- 160 -->
      <g style="fill: #262626" transform="translate(437.63642 399.638281) scale(0.11 -0.11)">
       <defs>
        <path id="DejaVuSans-36" d="M 2113 2584 
Q 1688 2584 1439 2293 
Q 1191 2003 1191 1497 
Q 1191 994 1439 701 
Q 1688 409 2113 409 
Q 2538 409 2786 701 
Q 3034 994 3034 1497 
Q 3034 2003 2786 2293 
Q 2538 2584 2113 2584 
z
M 3366 4563 
L 3366 3988 
Q 3128 4100 2886 4159 
Q 2644 4219 2406 4219 
Q 1781 4219 1451 3797 
Q 1122 3375 1075 2522 
Q 1259 2794 1537 2939 
Q 1816 3084 2150 3084 
Q 2853 3084 3261 2657 
Q 3669 2231 3669 1497 
Q 3669 778 3244 343 
Q 2819 -91 2113 -91 
Q 1303 -91 875 529 
Q 447 1150 447 2328 
Q 447 3434 972 4092 
Q 1497 4750 2381 4750 
Q 2619 4750 2861 4703 
Q 3103 4656 3366 4563 
z
" transform="scale(0.015625)"/>
       </defs>
       <use xlink:href="#DejaVuSans-31"/>
       <use xlink:href="#DejaVuSans-36" x="63.623047"/>
       <use xlink:href="#DejaVuSans-30" x="127.246094"/>
      </g>
     </g>
    </g>
    <g id="xtick_5">
     <g id="line2d_5">
      <path d="M 563.203636 381.78 
L 563.203636 29.04 
" clip-path="url(#pf1df403a69)" style="fill: none; stroke: #cccccc; stroke-linecap: round"/>
     </g>
     <g id="text_5">
      <!-- 180 -->
      <g style="fill: #262626" transform="translate(552.705511 399.638281) scale(0.11 -0.11)">
       <defs>
        <path id="DejaVuSans-38" d="M 2034 2216 
Q 1584 2216 1326 1975 
Q 1069 1734 1069 1313 
Q 1069 891 1326 650 
Q 1584 409 2034 409 
Q 2484 409 2743 651 
Q 3003 894 3003 1313 
Q 3003 1734 2745 1975 
Q 2488 2216 2034 2216 
z
M 1403 2484 
Q 997 2584 770 2862 
Q 544 3141 544 3541 
Q 544 4100 942 4425 
Q 1341 4750 2034 4750 
Q 2731 4750 3128 4425 
Q 3525 4100 3525 3541 
Q 3525 3141 3298 2862 
Q 3072 2584 2669 2484 
Q 3125 2378 3379 2068 
Q 3634 1759 3634 1313 
Q 3634 634 3220 271 
Q 2806 -91 2034 -91 
Q 1263 -91 848 271 
Q 434 634 434 1313 
Q 434 1759 690 2068 
Q 947 2378 1403 2484 
z
M 1172 3481 
Q 1172 3119 1398 2916 
Q 1625 2713 2034 2713 
Q 2441 2713 2670 2916 
Q 2900 3119 2900 3481 
Q 2900 3844 2670 4047 
Q 2441 4250 2034 4250 
Q 1625 4250 1398 4047 
Q 1172 3844 1172 3481 
z
" transform="scale(0.015625)"/>
       </defs>
       <use xlink:href="#DejaVuSans-31"/>
       <use xlink:href="#DejaVuSans-38" x="63.623047"/>
       <use xlink:href="#DejaVuSans-30" x="127.246094"/>
      </g>
     </g>
    </g>
    <g id="xtick_6">
     <g id="line2d_6">
      <path d="M 678.272727 381.78 
L 678.272727 29.04 
" clip-path="url(#pf1df403a69)" style="fill: none; stroke: #cccccc; stroke-linecap: round"/>
     </g>
     <g id="text_6">
      <!-- 200 -->
      <g style="fill: #262626" transform="translate(667.774602 399.638281) scale(0.11 -0.11)">
       <use xlink:href="#DejaVuSans-32"/>
       <use xlink:href="#DejaVuSans-30" x="63.623047"/>
       <use xlink:href="#DejaVuSans-30" x="127.246094"/>
      </g>
     </g>
    </g>
    <g id="text_7">
     <!-- Num Bets Per Match -->
     <g style="fill: #262626" transform="translate(329.59125 415.044062) scale(0.12 -0.12)">
      <defs>
       <path id="DejaVuSans-4e" d="M 628 4666 
L 1478 4666 
L 3547 763 
L 3547 4666 
L 4159 4666 
L 4159 0 
L 3309 0 
L 1241 3903 
L 1241 0 
L 628 0 
L 628 4666 
z
" transform="scale(0.015625)"/>
       <path id="DejaVuSans-75" d="M 544 1381 
L 544 3500 
L 1119 3500 
L 1119 1403 
Q 1119 906 1312 657 
Q 1506 409 1894 409 
Q 2359 409 2629 706 
Q 2900 1003 2900 1516 
L 2900 3500 
L 3475 3500 
L 3475 0 
L 2900 0 
L 2900 538 
Q 2691 219 2414 64 
Q 2138 -91 1772 -91 
Q 1169 -91 856 284 
Q 544 659 544 1381 
z
M 1991 3584 
L 1991 3584 
z
" transform="scale(0.015625)"/>
       <path id="DejaVuSans-6d" d="M 3328 2828 
Q 3544 3216 3844 3400 
Q 4144 3584 4550 3584 
Q 5097 3584 5394 3201 
Q 5691 2819 5691 2113 
L 5691 0 
L 5113 0 
L 5113 2094 
Q 5113 2597 4934 2840 
Q 4756 3084 4391 3084 
Q 3944 3084 3684 2787 
Q 3425 2491 3425 1978 
L 3425 0 
L 2847 0 
L 2847 2094 
Q 2847 2600 2669 2842 
Q 2491 3084 2119 3084 
Q 1678 3084 1418 2786 
Q 1159 2488 1159 1978 
L 1159 0 
L 581 0 
L 581 3500 
L 1159 3500 
L 1159 2956 
Q 1356 3278 1631 3431 
Q 1906 3584 2284 3584 
Q 2666 3584 2933 3390 
Q 3200 3197 3328 2828 
z
" transform="scale(0.015625)"/>
       <path id="DejaVuSans-20" transform="scale(0.015625)"/>
       <path id="DejaVuSans-42" d="M 1259 2228 
L 1259 519 
L 2272 519 
Q 2781 519 3026 730 
Q 3272 941 3272 1375 
Q 3272 1813 3026 2020 
Q 2781 2228 2272 2228 
L 1259 2228 
z
M 1259 4147 
L 1259 2741 
L 2194 2741 
Q 2656 2741 2882 2914 
Q 3109 3088 3109 3444 
Q 3109 3797 2882 3972 
Q 2656 4147 2194 4147 
L 1259 4147 
z
M 628 4666 
L 2241 4666 
Q 2963 4666 3353 4366 
Q 3744 4066 3744 3513 
Q 3744 3084 3544 2831 
Q 3344 2578 2956 2516 
Q 3422 2416 3680 2098 
Q 3938 1781 3938 1306 
Q 3938 681 3513 340 
Q 3088 0 2303 0 
L 628 0 
L 628 4666 
z
" transform="scale(0.015625)"/>
       <path id="DejaVuSans-65" d="M 3597 1894 
L 3597 1613 
L 953 1613 
Q 991 1019 1311 708 
Q 1631 397 2203 397 
Q 2534 397 2845 478 
Q 3156 559 3463 722 
L 3463 178 
Q 3153 47 2828 -22 
Q 2503 -91 2169 -91 
Q 1331 -91 842 396 
Q 353 884 353 1716 
Q 353 2575 817 3079 
Q 1281 3584 2069 3584 
Q 2775 3584 3186 3129 
Q 3597 2675 3597 1894 
z
M 3022 2063 
Q 3016 2534 2758 2815 
Q 2500 3097 2075 3097 
Q 1594 3097 1305 2825 
Q 1016 2553 972 2059 
L 3022 2063 
z
" transform="scale(0.015625)"/>
       <path id="DejaVuSans-74" d="M 1172 4494 
L 1172 3500 
L 2356 3500 
L 2356 3053 
L 1172 3053 
L 1172 1153 
Q 1172 725 1289 603 
Q 1406 481 1766 481 
L 2356 481 
L 2356 0 
L 1766 0 
Q 1100 0 847 248 
Q 594 497 594 1153 
L 594 3053 
L 172 3053 
L 172 3500 
L 594 3500 
L 594 4494 
L 1172 4494 
z
" transform="scale(0.015625)"/>
       <path id="DejaVuSans-73" d="M 2834 3397 
L 2834 2853 
Q 2591 2978 2328 3040 
Q 2066 3103 1784 3103 
Q 1356 3103 1142 2972 
Q 928 2841 928 2578 
Q 928 2378 1081 2264 
Q 1234 2150 1697 2047 
L 1894 2003 
Q 2506 1872 2764 1633 
Q 3022 1394 3022 966 
Q 3022 478 2636 193 
Q 2250 -91 1575 -91 
Q 1294 -91 989 -36 
Q 684 19 347 128 
L 347 722 
Q 666 556 975 473 
Q 1284 391 1588 391 
Q 1994 391 2212 530 
Q 2431 669 2431 922 
Q 2431 1156 2273 1281 
Q 2116 1406 1581 1522 
L 1381 1569 
Q 847 1681 609 1914 
Q 372 2147 372 2553 
Q 372 3047 722 3315 
Q 1072 3584 1716 3584 
Q 2034 3584 2315 3537 
Q 2597 3491 2834 3397 
z
" transform="scale(0.015625)"/>
       <path id="DejaVuSans-50" d="M 1259 4147 
L 1259 2394 
L 2053 2394 
Q 2494 2394 2734 2622 
Q 2975 2850 2975 3272 
Q 2975 3691 2734 3919 
Q 2494 4147 2053 4147 
L 1259 4147 
z
M 628 4666 
L 2053 4666 
Q 2838 4666 3239 4311 
Q 3641 3956 3641 3272 
Q 3641 2581 3239 2228 
Q 2838 1875 2053 1875 
L 1259 1875 
L 1259 0 
L 628 0 
L 628 4666 
z
" transform="scale(0.015625)"/>
       <path id="DejaVuSans-72" d="M 2631 2963 
Q 2534 3019 2420 3045 
Q 2306 3072 2169 3072 
Q 1681 3072 1420 2755 
Q 1159 2438 1159 1844 
L 1159 0 
L 581 0 
L 581 3500 
L 1159 3500 
L 1159 2956 
Q 1341 3275 1631 3429 
Q 1922 3584 2338 3584 
Q 2397 3584 2469 3576 
Q 2541 3569 2628 3553 
L 2631 2963 
z
" transform="scale(0.015625)"/>
       <path id="DejaVuSans-4d" d="M 628 4666 
L 1569 4666 
L 2759 1491 
L 3956 4666 
L 4897 4666 
L 4897 0 
L 4281 0 
L 4281 4097 
L 3078 897 
L 2444 897 
L 1241 4097 
L 1241 0 
L 628 0 
L 628 4666 
z
" transform="scale(0.015625)"/>
       <path id="DejaVuSans-61" d="M 2194 1759 
Q 1497 1759 1228 1600 
Q 959 1441 959 1056 
Q 959 750 1161 570 
Q 1363 391 1709 391 
Q 2188 391 2477 730 
Q 2766 1069 2766 1631 
L 2766 1759 
L 2194 1759 
z
M 3341 1997 
L 3341 0 
L 2766 0 
L 2766 531 
Q 2569 213 2275 61 
Q 1981 -91 1556 -91 
Q 1019 -91 701 211 
Q 384 513 384 1019 
Q 384 1609 779 1909 
Q 1175 2209 1959 2209 
L 2766 2209 
L 2766 2266 
Q 2766 2663 2505 2880 
Q 2244 3097 1772 3097 
Q 1472 3097 1187 3025 
Q 903 2953 641 2809 
L 641 3341 
Q 956 3463 1253 3523 
Q 1550 3584 1831 3584 
Q 2591 3584 2966 3190 
Q 3341 2797 3341 1997 
z
" transform="scale(0.015625)"/>
       <path id="DejaVuSans-63" d="M 3122 3366 
L 3122 2828 
Q 2878 2963 2633 3030 
Q 2388 3097 2138 3097 
Q 1578 3097 1268 2742 
Q 959 2388 959 1747 
Q 959 1106 1268 751 
Q 1578 397 2138 397 
Q 2388 397 2633 464 
Q 2878 531 3122 666 
L 3122 134 
Q 2881 22 2623 -34 
Q 2366 -91 2075 -91 
Q 1284 -91 818 406 
Q 353 903 353 1747 
Q 353 2603 823 3093 
Q 1294 3584 2113 3584 
Q 2378 3584 2631 3529 
Q 2884 3475 3122 3366 
z
" transform="scale(0.015625)"/>
       <path id="DejaVuSans-68" d="M 3513 2113 
L 3513 0 
L 2938 0 
L 2938 2094 
Q 2938 2591 2744 2837 
Q 2550 3084 2163 3084 
Q 1697 3084 1428 2787 
Q 1159 2491 1159 1978 
L 1159 0 
L 581 0 
L 581 4863 
L 1159 4863 
L 1159 2956 
Q 1366 3272 1645 3428 
Q 1925 3584 2291 3584 
Q 2894 3584 3203 3211 
Q 3513 2838 3513 2113 
z
" transform="scale(0.015625)"/>
      </defs>
      <use xlink:href="#DejaVuSans-4e"/>
      <use xlink:href="#DejaVuSans-75" x="74.804688"/>
      <use xlink:href="#DejaVuSans-6d" x="138.183594"/>
      <use xlink:href="#DejaVuSans-20" x="235.595703"/>
      <use xlink:href="#DejaVuSans-42" x="267.382812"/>
      <use xlink:href="#DejaVuSans-65" x="335.986328"/>
      <use xlink:href="#DejaVuSans-74" x="397.509766"/>
      <use xlink:href="#DejaVuSans-73" x="436.71875"/>
      <use xlink:href="#DejaVuSans-20" x="488.818359"/>
      <use xlink:href="#DejaVuSans-50" x="520.605469"/>
      <use xlink:href="#DejaVuSans-65" x="577.283203"/>
      <use xlink:href="#DejaVuSans-72" x="638.806641"/>
      <use xlink:href="#DejaVuSans-20" x="679.919922"/>
      <use xlink:href="#DejaVuSans-4d" x="711.707031"/>
      <use xlink:href="#DejaVuSans-61" x="797.986328"/>
      <use xlink:href="#DejaVuSans-74" x="859.265625"/>
      <use xlink:href="#DejaVuSans-63" x="898.474609"/>
      <use xlink:href="#DejaVuSans-68" x="953.455078"/>
     </g>
    </g>
   </g>
   <g id="matplotlib.axis_2">
    <g id="ytick_1">
     <g id="line2d_7">
      <path d="M 74.16 348.868852 
L 707.04 348.868852 
" clip-path="url(#pf1df403a69)" style="fill: none; stroke: #cccccc; stroke-linecap: round"/>
     </g>
     <g id="text_8">
      <!-- 40000 -->
      <g style="fill: #262626" transform="translate(29.66625 353.047992) scale(0.11 -0.11)">
       <use xlink:href="#DejaVuSans-34"/>
       <use xlink:href="#DejaVuSans-30" x="63.623047"/>
       <use xlink:href="#DejaVuSans-30" x="127.246094"/>
       <use xlink:href="#DejaVuSans-30" x="190.869141"/>
       <use xlink:href="#DejaVuSans-30" x="254.492188"/>
      </g>
     </g>
    </g>
    <g id="ytick_2">
     <g id="line2d_8">
      <path d="M 74.16 306.675072 
L 707.04 306.675072 
" clip-path="url(#pf1df403a69)" style="fill: none; stroke: #cccccc; stroke-linecap: round"/>
     </g>
     <g id="text_9">
      <!-- 45000 -->
      <g style="fill: #262626" transform="translate(29.66625 310.854212) scale(0.11 -0.11)">
       <defs>
        <path id="DejaVuSans-35" d="M 691 4666 
L 3169 4666 
L 3169 4134 
L 1269 4134 
L 1269 2991 
Q 1406 3038 1543 3061 
Q 1681 3084 1819 3084 
Q 2600 3084 3056 2656 
Q 3513 2228 3513 1497 
Q 3513 744 3044 326 
Q 2575 -91 1722 -91 
Q 1428 -91 1123 -41 
Q 819 9 494 109 
L 494 744 
Q 775 591 1075 516 
Q 1375 441 1709 441 
Q 2250 441 2565 725 
Q 2881 1009 2881 1497 
Q 2881 1984 2565 2268 
Q 2250 2553 1709 2553 
Q 1456 2553 1204 2497 
Q 953 2441 691 2322 
L 691 4666 
z
" transform="scale(0.015625)"/>
       </defs>
       <use xlink:href="#DejaVuSans-34"/>
       <use xlink:href="#DejaVuSans-35" x="63.623047"/>
       <use xlink:href="#DejaVuSans-30" x="127.246094"/>
       <use xlink:href="#DejaVuSans-30" x="190.869141"/>
       <use xlink:href="#DejaVuSans-30" x="254.492188"/>
      </g>
     </g>
    </g>
    <g id="ytick_3">
     <g id="line2d_9">
      <path d="M 74.16 264.481292 
L 707.04 264.481292 
" clip-path="url(#pf1df403a69)" style="fill: none; stroke: #cccccc; stroke-linecap: round"/>
     </g>
     <g id="text_10">
      <!-- 50000 -->
      <g style="fill: #262626" transform="translate(29.66625 268.660432) scale(0.11 -0.11)">
       <use xlink:href="#DejaVuSans-35"/>
       <use xlink:href="#DejaVuSans-30" x="63.623047"/>
       <use xlink:href="#DejaVuSans-30" x="127.246094"/>
       <use xlink:href="#DejaVuSans-30" x="190.869141"/>
       <use xlink:href="#DejaVuSans-30" x="254.492188"/>
      </g>
     </g>
    </g>
    <g id="ytick_4">
     <g id="line2d_10">
      <path d="M 74.16 222.287512 
L 707.04 222.287512 
" clip-path="url(#pf1df403a69)" style="fill: none; stroke: #cccccc; stroke-linecap: round"/>
     </g>
     <g id="text_11">
      <!-- 55000 -->
      <g style="fill: #262626" transform="translate(29.66625 226.466653) scale(0.11 -0.11)">
       <use xlink:href="#DejaVuSans-35"/>
       <use xlink:href="#DejaVuSans-35" x="63.623047"/>
       <use xlink:href="#DejaVuSans-30" x="127.246094"/>
       <use xlink:href="#DejaVuSans-30" x="190.869141"/>
       <use xlink:href="#DejaVuSans-30" x="254.492188"/>
      </g>
     </g>
    </g>
    <g id="ytick_5">
     <g id="line2d_11">
      <path d="M 74.16 180.093732 
L 707.04 180.093732 
" clip-path="url(#pf1df403a69)" style="fill: none; stroke: #cccccc; stroke-linecap: round"/>
     </g>
     <g id="text_12">
      <!-- 60000 -->
      <g style="fill: #262626" transform="translate(29.66625 184.272873) scale(0.11 -0.11)">
       <use xlink:href="#DejaVuSans-36"/>
       <use xlink:href="#DejaVuSans-30" x="63.623047"/>
       <use xlink:href="#DejaVuSans-30" x="127.246094"/>
       <use xlink:href="#DejaVuSans-30" x="190.869141"/>
       <use xlink:href="#DejaVuSans-30" x="254.492188"/>
      </g>
     </g>
    </g>
    <g id="ytick_6">
     <g id="line2d_12">
      <path d="M 74.16 137.899952 
L 707.04 137.899952 
" clip-path="url(#pf1df403a69)" style="fill: none; stroke: #cccccc; stroke-linecap: round"/>
     </g>
     <g id="text_13">
      <!-- 65000 -->
      <g style="fill: #262626" transform="translate(29.66625 142.079093) scale(0.11 -0.11)">
       <use xlink:href="#DejaVuSans-36"/>
       <use xlink:href="#DejaVuSans-35" x="63.623047"/>
       <use xlink:href="#DejaVuSans-30" x="127.246094"/>
       <use xlink:href="#DejaVuSans-30" x="190.869141"/>
       <use xlink:href="#DejaVuSans-30" x="254.492188"/>
      </g>
     </g>
    </g>
    <g id="ytick_7">
     <g id="line2d_13">
      <path d="M 74.16 95.706172 
L 707.04 95.706172 
" clip-path="url(#pf1df403a69)" style="fill: none; stroke: #cccccc; stroke-linecap: round"/>
     </g>
     <g id="text_14">
      <!-- 70000 -->
      <g style="fill: #262626" transform="translate(29.66625 99.885313) scale(0.11 -0.11)">
       <defs>
        <path id="DejaVuSans-37" d="M 525 4666 
L 3525 4666 
L 3525 4397 
L 1831 0 
L 1172 0 
L 2766 4134 
L 525 4134 
L 525 4666 
z
" transform="scale(0.015625)"/>
       </defs>
       <use xlink:href="#DejaVuSans-37"/>
       <use xlink:href="#DejaVuSans-30" x="63.623047"/>
       <use xlink:href="#DejaVuSans-30" x="127.246094"/>
       <use xlink:href="#DejaVuSans-30" x="190.869141"/>
       <use xlink:href="#DejaVuSans-30" x="254.492188"/>
      </g>
     </g>
    </g>
    <g id="ytick_8">
     <g id="line2d_14">
      <path d="M 74.16 53.512392 
L 707.04 53.512392 
" clip-path="url(#pf1df403a69)" style="fill: none; stroke: #cccccc; stroke-linecap: round"/>
     </g>
     <g id="text_15">
      <!-- 75000 -->
      <g style="fill: #262626" transform="translate(29.66625 57.691533) scale(0.11 -0.11)">
       <use xlink:href="#DejaVuSans-37"/>
       <use xlink:href="#DejaVuSans-35" x="63.623047"/>
       <use xlink:href="#DejaVuSans-30" x="127.246094"/>
       <use xlink:href="#DejaVuSans-30" x="190.869141"/>
       <use xlink:href="#DejaVuSans-30" x="254.492188"/>
      </g>
     </g>
    </g>
    <g id="text_16">
     <!-- Total Earnings -->
     <g style="fill: #262626" transform="translate(23.170625 247.365) rotate(-90) scale(0.12 -0.12)">
      <defs>
       <path id="DejaVuSans-54" d="M -19 4666 
L 3928 4666 
L 3928 4134 
L 2272 4134 
L 2272 0 
L 1638 0 
L 1638 4134 
L -19 4134 
L -19 4666 
z
" transform="scale(0.015625)"/>
       <path id="DejaVuSans-6f" d="M 1959 3097 
Q 1497 3097 1228 2736 
Q 959 2375 959 1747 
Q 959 1119 1226 758 
Q 1494 397 1959 397 
Q 2419 397 2687 759 
Q 2956 1122 2956 1747 
Q 2956 2369 2687 2733 
Q 2419 3097 1959 3097 
z
M 1959 3584 
Q 2709 3584 3137 3096 
Q 3566 2609 3566 1747 
Q 3566 888 3137 398 
Q 2709 -91 1959 -91 
Q 1206 -91 779 398 
Q 353 888 353 1747 
Q 353 2609 779 3096 
Q 1206 3584 1959 3584 
z
" transform="scale(0.015625)"/>
       <path id="DejaVuSans-6c" d="M 603 4863 
L 1178 4863 
L 1178 0 
L 603 0 
L 603 4863 
z
" transform="scale(0.015625)"/>
       <path id="DejaVuSans-45" d="M 628 4666 
L 3578 4666 
L 3578 4134 
L 1259 4134 
L 1259 2753 
L 3481 2753 
L 3481 2222 
L 1259 2222 
L 1259 531 
L 3634 531 
L 3634 0 
L 628 0 
L 628 4666 
z
" transform="scale(0.015625)"/>
       <path id="DejaVuSans-6e" d="M 3513 2113 
L 3513 0 
L 2938 0 
L 2938 2094 
Q 2938 2591 2744 2837 
Q 2550 3084 2163 3084 
Q 1697 3084 1428 2787 
Q 1159 2491 1159 1978 
L 1159 0 
L 581 0 
L 581 3500 
L 1159 3500 
L 1159 2956 
Q 1366 3272 1645 3428 
Q 1925 3584 2291 3584 
Q 2894 3584 3203 3211 
Q 3513 2838 3513 2113 
z
" transform="scale(0.015625)"/>
       <path id="DejaVuSans-69" d="M 603 3500 
L 1178 3500 
L 1178 0 
L 603 0 
L 603 3500 
z
M 603 4863 
L 1178 4863 
L 1178 4134 
L 603 4134 
L 603 4863 
z
" transform="scale(0.015625)"/>
       <path id="DejaVuSans-67" d="M 2906 1791 
Q 2906 2416 2648 2759 
Q 2391 3103 1925 3103 
Q 1463 3103 1205 2759 
Q 947 2416 947 1791 
Q 947 1169 1205 825 
Q 1463 481 1925 481 
Q 2391 481 2648 825 
Q 2906 1169 2906 1791 
z
M 3481 434 
Q 3481 -459 3084 -895 
Q 2688 -1331 1869 -1331 
Q 1566 -1331 1297 -1286 
Q 1028 -1241 775 -1147 
L 775 -588 
Q 1028 -725 1275 -790 
Q 1522 -856 1778 -856 
Q 2344 -856 2625 -561 
Q 2906 -266 2906 331 
L 2906 616 
Q 2728 306 2450 153 
Q 2172 0 1784 0 
Q 1141 0 747 490 
Q 353 981 353 1791 
Q 353 2603 747 3093 
Q 1141 3584 1784 3584 
Q 2172 3584 2450 3431 
Q 2728 3278 2906 2969 
L 2906 3500 
L 3481 3500 
L 3481 434 
z
" transform="scale(0.015625)"/>
      </defs>
      <use xlink:href="#DejaVuSans-54"/>
      <use xlink:href="#DejaVuSans-6f" x="44.083984"/>
      <use xlink:href="#DejaVuSans-74" x="105.265625"/>
      <use xlink:href="#DejaVuSans-61" x="144.474609"/>
      <use xlink:href="#DejaVuSans-6c" x="205.753906"/>
      <use xlink:href="#DejaVuSans-20" x="233.537109"/>
      <use xlink:href="#DejaVuSans-45" x="265.324219"/>
      <use xlink:href="#DejaVuSans-61" x="328.507812"/>
      <use xlink:href="#DejaVuSans-72" x="389.787109"/>
      <use xlink:href="#DejaVuSans-6e" x="429.150391"/>
      <use xlink:href="#DejaVuSans-69" x="492.529297"/>
      <use xlink:href="#DejaVuSans-6e" x="520.3125"/>
      <use xlink:href="#DejaVuSans-67" x="583.691406"/>
      <use xlink:href="#DejaVuSans-73" x="647.167969"/>
     </g>
    </g>
   </g>
   <g id="PolyCollection_1"/>
   <g id="line2d_15">
    <path d="M 102.927273 365.746364 
L 108.680727 362.539636 
L 114.434182 359.332909 
L 120.187636 356.126182 
L 125.941091 352.919455 
L 131.694545 349.712727 
L 137.448 346.506 
L 143.201455 343.299273 
L 148.954909 340.092545 
L 154.708364 336.885818 
L 160.461818 333.679091 
L 166.215273 330.472364 
L 171.968727 327.265636 
L 177.722182 324.058909 
L 183.475636 320.852182 
L 189.229091 317.645455 
L 194.982545 314.438727 
L 200.736 311.232 
L 206.489455 308.025273 
L 212.242909 304.818545 
L 217.996364 301.611818 
L 223.749818 298.405091 
L 229.503273 295.198364 
L 235.256727 291.991636 
L 241.010182 288.784909 
L 246.763636 285.578182 
L 252.517091 282.371455 
L 258.270545 279.164727 
L 264.024 275.958 
L 269.777455 272.751273 
L 275.530909 269.544545 
L 281.284364 266.337818 
L 287.037818 263.131091 
L 292.791273 259.924364 
L 298.544727 256.717636 
L 304.298182 253.510909 
L 310.051636 250.304182 
L 315.805091 247.097455 
L 321.558545 243.890727 
L 327.312 240.684 
L 333.065455 237.477273 
L 338.818909 234.270545 
L 344.572364 231.063818 
L 350.325818 227.857091 
L 356.079273 224.650364 
L 361.832727 221.443636 
L 367.586182 218.236909 
L 373.339636 215.030182 
L 379.093091 211.823455 
L 384.846545 208.616727 
L 390.6 205.41 
L 396.353455 202.203273 
L 402.106909 198.996545 
L 407.860364 195.789818 
L 413.613818 192.583091 
L 419.367273 189.376364 
L 425.120727 186.169636 
L 430.874182 182.962909 
L 436.627636 179.756182 
L 442.381091 176.549455 
L 448.134545 173.342727 
L 453.888 170.136 
L 459.641455 166.929273 
L 465.394909 163.722545 
L 471.148364 160.515818 
L 476.901818 157.309091 
L 482.655273 154.102364 
L 488.408727 150.895636 
L 494.162182 147.688909 
L 499.915636 144.482182 
L 505.669091 141.275455 
L 511.422545 138.068727 
L 517.176 134.862 
L 522.929455 131.655273 
L 528.682909 128.448545 
L 534.436364 125.241818 
L 540.189818 122.035091 
L 545.943273 118.828364 
L 551.696727 115.621636 
L 557.450182 112.414909 
L 563.203636 109.208182 
L 568.957091 106.001455 
L 574.710545 102.794727 
L 580.464 99.588 
L 586.217455 96.381273 
L 591.970909 93.174545 
L 597.724364 89.967818 
L 603.477818 86.761091 
L 609.231273 83.554364 
L 614.984727 80.347636 
L 620.738182 77.140909 
L 626.491636 73.934182 
L 632.245091 70.727455 
L 637.998545 67.520727 
L 643.752 64.314 
L 649.505455 61.107273 
L 655.258909 57.900545 
L 661.012364 54.693818 
L 666.765818 51.487091 
L 672.519273 48.280364 
L 678.272727 45.073636 
" clip-path="url(#pf1df403a69)" style="fill: none; stroke: #a1c9f4; stroke-width: 1.5; stroke-linecap: round"/>
    <defs>
     <path id="me29b94b526" d="M 0 3 
C 0.795609 3 1.55874 2.683901 2.12132 2.12132 
C 2.683901 1.55874 3 0.795609 3 0 
C 3 -0.795609 2.683901 -1.55874 2.12132 -2.12132 
C 1.55874 -2.683901 0.795609 -3 0 -3 
C -0.795609 -3 -1.55874 -2.683901 -2.12132 -2.12132 
C -2.683901 -1.55874 -3 -0.795609 -3 0 
C -3 0.795609 -2.683901 1.55874 -2.12132 2.12132 
C -1.55874 2.683901 -0.795609 3 0 3 
z
" style="stroke: #ffffff; stroke-width: 0.75"/>
    </defs>
    <g clip-path="url(#pf1df403a69)">
     <use xlink:href="#me29b94b526" x="102.927273" y="365.746364" style="fill: #a1c9f4; stroke: #ffffff; stroke-width: 0.75"/>
     <use xlink:href="#me29b94b526" x="108.680727" y="362.539636" style="fill: #a1c9f4; stroke: #ffffff; stroke-width: 0.75"/>
     <use xlink:href="#me29b94b526" x="114.434182" y="359.332909" style="fill: #a1c9f4; stroke: #ffffff; stroke-width: 0.75"/>
     <use xlink:href="#me29b94b526" x="120.187636" y="356.126182" style="fill: #a1c9f4; stroke: #ffffff; stroke-width: 0.75"/>
     <use xlink:href="#me29b94b526" x="125.941091" y="352.919455" style="fill: #a1c9f4; stroke: #ffffff; stroke-width: 0.75"/>
     <use xlink:href="#me29b94b526" x="131.694545" y="349.712727" style="fill: #a1c9f4; stroke: #ffffff; stroke-width: 0.75"/>
     <use xlink:href="#me29b94b526" x="137.448" y="346.506" style="fill: #a1c9f4; stroke: #ffffff; stroke-width: 0.75"/>
     <use xlink:href="#me29b94b526" x="143.201455" y="343.299273" style="fill: #a1c9f4; stroke: #ffffff; stroke-width: 0.75"/>
     <use xlink:href="#me29b94b526" x="148.954909" y="340.092545" style="fill: #a1c9f4; stroke: #ffffff; stroke-width: 0.75"/>
     <use xlink:href="#me29b94b526" x="154.708364" y="336.885818" style="fill: #a1c9f4; stroke: #ffffff; stroke-width: 0.75"/>
     <use xlink:href="#me29b94b526" x="160.461818" y="333.679091" style="fill: #a1c9f4; stroke: #ffffff; stroke-width: 0.75"/>
     <use xlink:href="#me29b94b526" x="166.215273" y="330.472364" style="fill: #a1c9f4; stroke: #ffffff; stroke-width: 0.75"/>
     <use xlink:href="#me29b94b526" x="171.968727" y="327.265636" style="fill: #a1c9f4; stroke: #ffffff; stroke-width: 0.75"/>
     <use xlink:href="#me29b94b526" x="177.722182" y="324.058909" style="fill: #a1c9f4; stroke: #ffffff; stroke-width: 0.75"/>
     <use xlink:href="#me29b94b526" x="183.475636" y="320.852182" style="fill: #a1c9f4; stroke: #ffffff; stroke-width: 0.75"/>
     <use xlink:href="#me29b94b526" x="189.229091" y="317.645455" style="fill: #a1c9f4; stroke: #ffffff; stroke-width: 0.75"/>
     <use xlink:href="#me29b94b526" x="194.982545" y="314.438727" style="fill: #a1c9f4; stroke: #ffffff; stroke-width: 0.75"/>
     <use xlink:href="#me29b94b526" x="200.736" y="311.232" style="fill: #a1c9f4; stroke: #ffffff; stroke-width: 0.75"/>
     <use xlink:href="#me29b94b526" x="206.489455" y="308.025273" style="fill: #a1c9f4; stroke: #ffffff; stroke-width: 0.75"/>
     <use xlink:href="#me29b94b526" x="212.242909" y="304.818545" style="fill: #a1c9f4; stroke: #ffffff; stroke-width: 0.75"/>
     <use xlink:href="#me29b94b526" x="217.996364" y="301.611818" style="fill: #a1c9f4; stroke: #ffffff; stroke-width: 0.75"/>
     <use xlink:href="#me29b94b526" x="223.749818" y="298.405091" style="fill: #a1c9f4; stroke: #ffffff; stroke-width: 0.75"/>
     <use xlink:href="#me29b94b526" x="229.503273" y="295.198364" style="fill: #a1c9f4; stroke: #ffffff; stroke-width: 0.75"/>
     <use xlink:href="#me29b94b526" x="235.256727" y="291.991636" style="fill: #a1c9f4; stroke: #ffffff; stroke-width: 0.75"/>
     <use xlink:href="#me29b94b526" x="241.010182" y="288.784909" style="fill: #a1c9f4; stroke: #ffffff; stroke-width: 0.75"/>
     <use xlink:href="#me29b94b526" x="246.763636" y="285.578182" style="fill: #a1c9f4; stroke: #ffffff; stroke-width: 0.75"/>
     <use xlink:href="#me29b94b526" x="252.517091" y="282.371455" style="fill: #a1c9f4; stroke: #ffffff; stroke-width: 0.75"/>
     <use xlink:href="#me29b94b526" x="258.270545" y="279.164727" style="fill: #a1c9f4; stroke: #ffffff; stroke-width: 0.75"/>
     <use xlink:href="#me29b94b526" x="264.024" y="275.958" style="fill: #a1c9f4; stroke: #ffffff; stroke-width: 0.75"/>
     <use xlink:href="#me29b94b526" x="269.777455" y="272.751273" style="fill: #a1c9f4; stroke: #ffffff; stroke-width: 0.75"/>
     <use xlink:href="#me29b94b526" x="275.530909" y="269.544545" style="fill: #a1c9f4; stroke: #ffffff; stroke-width: 0.75"/>
     <use xlink:href="#me29b94b526" x="281.284364" y="266.337818" style="fill: #a1c9f4; stroke: #ffffff; stroke-width: 0.75"/>
     <use xlink:href="#me29b94b526" x="287.037818" y="263.131091" style="fill: #a1c9f4; stroke: #ffffff; stroke-width: 0.75"/>
     <use xlink:href="#me29b94b526" x="292.791273" y="259.924364" style="fill: #a1c9f4; stroke: #ffffff; stroke-width: 0.75"/>
     <use xlink:href="#me29b94b526" x="298.544727" y="256.717636" style="fill: #a1c9f4; stroke: #ffffff; stroke-width: 0.75"/>
     <use xlink:href="#me29b94b526" x="304.298182" y="253.510909" style="fill: #a1c9f4; stroke: #ffffff; stroke-width: 0.75"/>
     <use xlink:href="#me29b94b526" x="310.051636" y="250.304182" style="fill: #a1c9f4; stroke: #ffffff; stroke-width: 0.75"/>
     <use xlink:href="#me29b94b526" x="315.805091" y="247.097455" style="fill: #a1c9f4; stroke: #ffffff; stroke-width: 0.75"/>
     <use xlink:href="#me29b94b526" x="321.558545" y="243.890727" style="fill: #a1c9f4; stroke: #ffffff; stroke-width: 0.75"/>
     <use xlink:href="#me29b94b526" x="327.312" y="240.684" style="fill: #a1c9f4; stroke: #ffffff; stroke-width: 0.75"/>
     <use xlink:href="#me29b94b526" x="333.065455" y="237.477273" style="fill: #a1c9f4; stroke: #ffffff; stroke-width: 0.75"/>
     <use xlink:href="#me29b94b526" x="338.818909" y="234.270545" style="fill: #a1c9f4; stroke: #ffffff; stroke-width: 0.75"/>
     <use xlink:href="#me29b94b526" x="344.572364" y="231.063818" style="fill: #a1c9f4; stroke: #ffffff; stroke-width: 0.75"/>
     <use xlink:href="#me29b94b526" x="350.325818" y="227.857091" style="fill: #a1c9f4; stroke: #ffffff; stroke-width: 0.75"/>
     <use xlink:href="#me29b94b526" x="356.079273" y="224.650364" style="fill: #a1c9f4; stroke: #ffffff; stroke-width: 0.75"/>
     <use xlink:href="#me29b94b526" x="361.832727" y="221.443636" style="fill: #a1c9f4; stroke: #ffffff; stroke-width: 0.75"/>
     <use xlink:href="#me29b94b526" x="367.586182" y="218.236909" style="fill: #a1c9f4; stroke: #ffffff; stroke-width: 0.75"/>
     <use xlink:href="#me29b94b526" x="373.339636" y="215.030182" style="fill: #a1c9f4; stroke: #ffffff; stroke-width: 0.75"/>
     <use xlink:href="#me29b94b526" x="379.093091" y="211.823455" style="fill: #a1c9f4; stroke: #ffffff; stroke-width: 0.75"/>
     <use xlink:href="#me29b94b526" x="384.846545" y="208.616727" style="fill: #a1c9f4; stroke: #ffffff; stroke-width: 0.75"/>
     <use xlink:href="#me29b94b526" x="390.6" y="205.41" style="fill: #a1c9f4; stroke: #ffffff; stroke-width: 0.75"/>
     <use xlink:href="#me29b94b526" x="396.353455" y="202.203273" style="fill: #a1c9f4; stroke: #ffffff; stroke-width: 0.75"/>
     <use xlink:href="#me29b94b526" x="402.106909" y="198.996545" style="fill: #a1c9f4; stroke: #ffffff; stroke-width: 0.75"/>
     <use xlink:href="#me29b94b526" x="407.860364" y="195.789818" style="fill: #a1c9f4; stroke: #ffffff; stroke-width: 0.75"/>
     <use xlink:href="#me29b94b526" x="413.613818" y="192.583091" style="fill: #a1c9f4; stroke: #ffffff; stroke-width: 0.75"/>
     <use xlink:href="#me29b94b526" x="419.367273" y="189.376364" style="fill: #a1c9f4; stroke: #ffffff; stroke-width: 0.75"/>
     <use xlink:href="#me29b94b526" x="425.120727" y="186.169636" style="fill: #a1c9f4; stroke: #ffffff; stroke-width: 0.75"/>
     <use xlink:href="#me29b94b526" x="430.874182" y="182.962909" style="fill: #a1c9f4; stroke: #ffffff; stroke-width: 0.75"/>
     <use xlink:href="#me29b94b526" x="436.627636" y="179.756182" style="fill: #a1c9f4; stroke: #ffffff; stroke-width: 0.75"/>
     <use xlink:href="#me29b94b526" x="442.381091" y="176.549455" style="fill: #a1c9f4; stroke: #ffffff; stroke-width: 0.75"/>
     <use xlink:href="#me29b94b526" x="448.134545" y="173.342727" style="fill: #a1c9f4; stroke: #ffffff; stroke-width: 0.75"/>
     <use xlink:href="#me29b94b526" x="453.888" y="170.136" style="fill: #a1c9f4; stroke: #ffffff; stroke-width: 0.75"/>
     <use xlink:href="#me29b94b526" x="459.641455" y="166.929273" style="fill: #a1c9f4; stroke: #ffffff; stroke-width: 0.75"/>
     <use xlink:href="#me29b94b526" x="465.394909" y="163.722545" style="fill: #a1c9f4; stroke: #ffffff; stroke-width: 0.75"/>
     <use xlink:href="#me29b94b526" x="471.148364" y="160.515818" style="fill: #a1c9f4; stroke: #ffffff; stroke-width: 0.75"/>
     <use xlink:href="#me29b94b526" x="476.901818" y="157.309091" style="fill: #a1c9f4; stroke: #ffffff; stroke-width: 0.75"/>
     <use xlink:href="#me29b94b526" x="482.655273" y="154.102364" style="fill: #a1c9f4; stroke: #ffffff; stroke-width: 0.75"/>
     <use xlink:href="#me29b94b526" x="488.408727" y="150.895636" style="fill: #a1c9f4; stroke: #ffffff; stroke-width: 0.75"/>
     <use xlink:href="#me29b94b526" x="494.162182" y="147.688909" style="fill: #a1c9f4; stroke: #ffffff; stroke-width: 0.75"/>
     <use xlink:href="#me29b94b526" x="499.915636" y="144.482182" style="fill: #a1c9f4; stroke: #ffffff; stroke-width: 0.75"/>
     <use xlink:href="#me29b94b526" x="505.669091" y="141.275455" style="fill: #a1c9f4; stroke: #ffffff; stroke-width: 0.75"/>
     <use xlink:href="#me29b94b526" x="511.422545" y="138.068727" style="fill: #a1c9f4; stroke: #ffffff; stroke-width: 0.75"/>
     <use xlink:href="#me29b94b526" x="517.176" y="134.862" style="fill: #a1c9f4; stroke: #ffffff; stroke-width: 0.75"/>
     <use xlink:href="#me29b94b526" x="522.929455" y="131.655273" style="fill: #a1c9f4; stroke: #ffffff; stroke-width: 0.75"/>
     <use xlink:href="#me29b94b526" x="528.682909" y="128.448545" style="fill: #a1c9f4; stroke: #ffffff; stroke-width: 0.75"/>
     <use xlink:href="#me29b94b526" x="534.436364" y="125.241818" style="fill: #a1c9f4; stroke: #ffffff; stroke-width: 0.75"/>
     <use xlink:href="#me29b94b526" x="540.189818" y="122.035091" style="fill: #a1c9f4; stroke: #ffffff; stroke-width: 0.75"/>
     <use xlink:href="#me29b94b526" x="545.943273" y="118.828364" style="fill: #a1c9f4; stroke: #ffffff; stroke-width: 0.75"/>
     <use xlink:href="#me29b94b526" x="551.696727" y="115.621636" style="fill: #a1c9f4; stroke: #ffffff; stroke-width: 0.75"/>
     <use xlink:href="#me29b94b526" x="557.450182" y="112.414909" style="fill: #a1c9f4; stroke: #ffffff; stroke-width: 0.75"/>
     <use xlink:href="#me29b94b526" x="563.203636" y="109.208182" style="fill: #a1c9f4; stroke: #ffffff; stroke-width: 0.75"/>
     <use xlink:href="#me29b94b526" x="568.957091" y="106.001455" style="fill: #a1c9f4; stroke: #ffffff; stroke-width: 0.75"/>
     <use xlink:href="#me29b94b526" x="574.710545" y="102.794727" style="fill: #a1c9f4; stroke: #ffffff; stroke-width: 0.75"/>
     <use xlink:href="#me29b94b526" x="580.464" y="99.588" style="fill: #a1c9f4; stroke: #ffffff; stroke-width: 0.75"/>
     <use xlink:href="#me29b94b526" x="586.217455" y="96.381273" style="fill: #a1c9f4; stroke: #ffffff; stroke-width: 0.75"/>
     <use xlink:href="#me29b94b526" x="591.970909" y="93.174545" style="fill: #a1c9f4; stroke: #ffffff; stroke-width: 0.75"/>
     <use xlink:href="#me29b94b526" x="597.724364" y="89.967818" style="fill: #a1c9f4; stroke: #ffffff; stroke-width: 0.75"/>
     <use xlink:href="#me29b94b526" x="603.477818" y="86.761091" style="fill: #a1c9f4; stroke: #ffffff; stroke-width: 0.75"/>
     <use xlink:href="#me29b94b526" x="609.231273" y="83.554364" style="fill: #a1c9f4; stroke: #ffffff; stroke-width: 0.75"/>
     <use xlink:href="#me29b94b526" x="614.984727" y="80.347636" style="fill: #a1c9f4; stroke: #ffffff; stroke-width: 0.75"/>
     <use xlink:href="#me29b94b526" x="620.738182" y="77.140909" style="fill: #a1c9f4; stroke: #ffffff; stroke-width: 0.75"/>
     <use xlink:href="#me29b94b526" x="626.491636" y="73.934182" style="fill: #a1c9f4; stroke: #ffffff; stroke-width: 0.75"/>
     <use xlink:href="#me29b94b526" x="632.245091" y="70.727455" style="fill: #a1c9f4; stroke: #ffffff; stroke-width: 0.75"/>
     <use xlink:href="#me29b94b526" x="637.998545" y="67.520727" style="fill: #a1c9f4; stroke: #ffffff; stroke-width: 0.75"/>
     <use xlink:href="#me29b94b526" x="643.752" y="64.314" style="fill: #a1c9f4; stroke: #ffffff; stroke-width: 0.75"/>
     <use xlink:href="#me29b94b526" x="649.505455" y="61.107273" style="fill: #a1c9f4; stroke: #ffffff; stroke-width: 0.75"/>
     <use xlink:href="#me29b94b526" x="655.258909" y="57.900545" style="fill: #a1c9f4; stroke: #ffffff; stroke-width: 0.75"/>
     <use xlink:href="#me29b94b526" x="661.012364" y="54.693818" style="fill: #a1c9f4; stroke: #ffffff; stroke-width: 0.75"/>
     <use xlink:href="#me29b94b526" x="666.765818" y="51.487091" style="fill: #a1c9f4; stroke: #ffffff; stroke-width: 0.75"/>
     <use xlink:href="#me29b94b526" x="672.519273" y="48.280364" style="fill: #a1c9f4; stroke: #ffffff; stroke-width: 0.75"/>
     <use xlink:href="#me29b94b526" x="678.272727" y="45.073636" style="fill: #a1c9f4; stroke: #ffffff; stroke-width: 0.75"/>
    </g>
   </g>
   <g id="patch_3">
    <path d="M 74.16 381.78 
L 74.16 29.04 
" style="fill: none; stroke: #cccccc; stroke-width: 1.25; stroke-linejoin: miter; stroke-linecap: square"/>
   </g>
   <g id="patch_4">
    <path d="M 707.04 381.78 
L 707.04 29.04 
" style="fill: none; stroke: #cccccc; stroke-width: 1.25; stroke-linejoin: miter; stroke-linecap: square"/>
   </g>
   <g id="patch_5">
    <path d="M 74.16 381.78 
L 707.04 381.78 
" style="fill: none; stroke: #cccccc; stroke-width: 1.25; stroke-linejoin: miter; stroke-linecap: square"/>
   </g>
   <g id="patch_6">
    <path d="M 74.16 29.04 
L 707.04 29.04 
" style="fill: none; stroke: #cccccc; stroke-width: 1.25; stroke-linejoin: miter; stroke-linecap: square"/>
   </g>
   <g id="text_17">
    <!-- House Earnings per Match -->
    <g style="fill: #262626" transform="translate(311.764688 23.04) scale(0.12 -0.12)">
     <defs>
      <path id="DejaVuSans-48" d="M 628 4666 
L 1259 4666 
L 1259 2753 
L 3553 2753 
L 3553 4666 
L 4184 4666 
L 4184 0 
L 3553 0 
L 3553 2222 
L 1259 2222 
L 1259 0 
L 628 0 
L 628 4666 
z
" transform="scale(0.015625)"/>
      <path id="DejaVuSans-70" d="M 1159 525 
L 1159 -1331 
L 581 -1331 
L 581 3500 
L 1159 3500 
L 1159 2969 
Q 1341 3281 1617 3432 
Q 1894 3584 2278 3584 
Q 2916 3584 3314 3078 
Q 3713 2572 3713 1747 
Q 3713 922 3314 415 
Q 2916 -91 2278 -91 
Q 1894 -91 1617 61 
Q 1341 213 1159 525 
z
M 3116 1747 
Q 3116 2381 2855 2742 
Q 2594 3103 2138 3103 
Q 1681 3103 1420 2742 
Q 1159 2381 1159 1747 
Q 1159 1113 1420 752 
Q 1681 391 2138 391 
Q 2594 391 2855 752 
Q 3116 1113 3116 1747 
z
" transform="scale(0.015625)"/>
     </defs>
     <use xlink:href="#DejaVuSans-48"/>
     <use xlink:href="#DejaVuSans-6f" x="75.195312"/>
     <use xlink:href="#DejaVuSans-75" x="136.376953"/>
     <use xlink:href="#DejaVuSans-73" x="199.755859"/>
     <use xlink:href="#DejaVuSans-65" x="251.855469"/>
     <use xlink:href="#DejaVuSans-20" x="313.378906"/>
     <use xlink:href="#DejaVuSans-45" x="345.166016"/>
     <use xlink:href="#DejaVuSans-61" x="408.349609"/>
     <use xlink:href="#DejaVuSans-72" x="469.628906"/>
     <use xlink:href="#DejaVuSans-6e" x="508.992188"/>
     <use xlink:href="#DejaVuSans-69" x="572.371094"/>
     <use xlink:href="#DejaVuSans-6e" x="600.154297"/>
     <use xlink:href="#DejaVuSans-67" x="663.533203"/>
     <use xlink:href="#DejaVuSans-73" x="727.009766"/>
     <use xlink:href="#DejaVuSans-20" x="779.109375"/>
     <use xlink:href="#DejaVuSans-70" x="810.896484"/>
     <use xlink:href="#DejaVuSans-65" x="874.373047"/>
     <use xlink:href="#DejaVuSans-72" x="935.896484"/>
     <use xlink:href="#DejaVuSans-20" x="977.009766"/>
     <use xlink:href="#DejaVuSans-4d" x="1008.796875"/>
     <use xlink:href="#DejaVuSans-61" x="1095.076172"/>
     <use xlink:href="#DejaVuSans-74" x="1156.355469"/>
     <use xlink:href="#DejaVuSans-63" x="1195.564453"/>
     <use xlink:href="#DejaVuSans-68" x="1250.544922"/>
    </g>
   </g>
  </g>
 </g>
 <defs>
  <clipPath id="pf1df403a69">
   <rect x="74.16" y="29.04" width="632.88" height="352.74"/>
  </clipPath>
 </defs>
</svg>
